<svg width="122" height="152" viewBox="0 0 122 152" fill="none" xmlns="http://www.w3.org/2000/svg">
<path d="M61.4785 2C88.8045 2.00011 110.957 24.1525 110.957 51.4785C110.957 78.8044 88.8044 100.956 61.4785 100.956C34.1525 100.956 12.0001 78.8045 12 51.4785C12 24.1524 34.1524 2 61.4785 2Z" stroke="#233469" stroke-width="4"/>
<path d="M42.1506 113.362H39.4943C39.4186 112.927 39.2789 112.541 39.0753 112.205C38.8717 111.864 38.6184 111.575 38.3153 111.338C38.0123 111.101 37.6667 110.924 37.2784 110.805C36.8949 110.682 36.4806 110.621 36.0355 110.621C35.2448 110.621 34.544 110.82 33.9332 111.217C33.3224 111.61 32.8442 112.188 32.4986 112.95C32.1529 113.708 31.9801 114.634 31.9801 115.727C31.9801 116.84 32.1529 117.777 32.4986 118.54C32.849 119.297 33.3272 119.87 33.9332 120.259C34.544 120.642 35.2424 120.834 36.0284 120.834C36.464 120.834 36.8712 120.777 37.25 120.663C37.6335 120.545 37.9768 120.372 38.2798 120.145C38.5876 119.918 38.8456 119.638 39.054 119.307C39.267 118.975 39.4138 118.597 39.4943 118.17L42.1506 118.185C42.0511 118.876 41.8357 119.525 41.5043 120.131C41.1776 120.737 40.7491 121.272 40.2188 121.736C39.6884 122.195 39.0682 122.555 38.358 122.815C37.6477 123.071 36.8594 123.199 35.9929 123.199C34.7145 123.199 33.5734 122.903 32.5696 122.311C31.5658 121.719 30.7751 120.865 30.1974 119.747C29.6198 118.63 29.331 117.29 29.331 115.727C29.331 114.16 29.6222 112.82 30.2045 111.707C30.7869 110.59 31.58 109.735 32.5838 109.143C33.5876 108.552 34.724 108.256 35.9929 108.256C36.8026 108.256 37.5554 108.369 38.2514 108.597C38.9474 108.824 39.5677 109.158 40.1122 109.598C40.6567 110.034 41.1042 110.569 41.4545 111.203C41.8097 111.833 42.0417 112.553 42.1506 113.362ZM47.5891 123.22C46.8978 123.22 46.2752 123.097 45.7212 122.851C45.172 122.6 44.7364 122.231 44.4144 121.743C44.0972 121.255 43.9386 120.654 43.9386 119.939C43.9386 119.323 44.0522 118.814 44.2795 118.412C44.5067 118.009 44.8169 117.688 45.2099 117.446C45.6029 117.205 46.0456 117.022 46.538 116.899C47.0352 116.771 47.5489 116.679 48.0792 116.622C48.7184 116.556 49.2369 116.497 49.6346 116.445C50.0323 116.388 50.3211 116.303 50.5011 116.189C50.6857 116.071 50.7781 115.888 50.7781 115.642V115.599C50.7781 115.064 50.6194 114.65 50.3022 114.357C49.985 114.063 49.5281 113.916 48.9315 113.916C48.3017 113.916 47.8022 114.054 47.4329 114.328C47.0683 114.603 46.8221 114.927 46.6942 115.301L44.2937 114.96C44.4831 114.297 44.7956 113.743 45.2312 113.298C45.6668 112.848 46.1995 112.512 46.8292 112.29C47.4589 112.062 48.1549 111.949 48.9173 111.949C49.4428 111.949 49.966 112.01 50.4869 112.134C51.0077 112.257 51.4835 112.46 51.9144 112.744C52.3453 113.024 52.6909 113.405 52.9513 113.888C53.2165 114.371 53.3491 114.974 53.3491 115.699V123H50.8775V121.501H50.7923C50.636 121.804 50.4158 122.089 50.1317 122.354C49.8524 122.614 49.4996 122.825 49.0735 122.986C48.6521 123.142 48.1573 123.22 47.5891 123.22ZM48.2567 121.331C48.7728 121.331 49.2203 121.229 49.5991 121.026C49.9779 120.817 50.2691 120.543 50.4727 120.202C50.681 119.861 50.7852 119.489 50.7852 119.087V117.801C50.7047 117.867 50.5674 117.929 50.3732 117.986C50.1838 118.043 49.9708 118.092 49.734 118.135C49.4973 118.178 49.2629 118.215 49.0309 118.249C48.7989 118.282 48.5977 118.31 48.4272 118.334C48.0437 118.386 47.7004 118.471 47.3974 118.589C47.0943 118.708 46.8552 118.874 46.68 119.087C46.5049 119.295 46.4173 119.565 46.4173 119.896C46.4173 120.37 46.5901 120.727 46.9357 120.969C47.2814 121.21 47.7217 121.331 48.2567 121.331ZM55.9343 123V112.091H58.4272V113.909H58.5408C58.7397 113.279 59.0806 112.794 59.5636 112.453C60.0513 112.107 60.6076 111.935 61.2326 111.935C61.3746 111.935 61.5333 111.942 61.7085 111.956C61.8884 111.965 62.0375 111.982 62.1559 112.006V114.371C62.047 114.333 61.8742 114.3 61.6374 114.271C61.4054 114.238 61.1805 114.222 60.9627 114.222C60.494 114.222 60.0726 114.323 59.6985 114.527C59.3292 114.726 59.038 115.003 58.8249 115.358C58.6119 115.713 58.5053 116.123 58.5053 116.587V123H55.9343ZM68.2443 123.213C67.1506 123.213 66.206 122.986 65.4105 122.531C64.6198 122.072 64.0114 121.423 63.5852 120.585C63.1591 119.742 62.946 118.75 62.946 117.609C62.946 116.487 63.1591 115.502 63.5852 114.655C64.0161 113.803 64.6174 113.14 65.3892 112.666C66.161 112.188 67.0677 111.949 68.1094 111.949C68.7817 111.949 69.4162 112.058 70.0128 112.276C70.6141 112.489 71.1444 112.82 71.6037 113.27C72.0677 113.72 72.4323 114.293 72.6974 114.989C72.9626 115.68 73.0952 116.504 73.0952 117.46V118.249H64.1534V116.516H70.6307C70.6259 116.023 70.5194 115.585 70.3111 115.202C70.1027 114.813 69.8116 114.508 69.4375 114.286C69.0682 114.063 68.6373 113.952 68.1449 113.952C67.6193 113.952 67.1577 114.08 66.7599 114.335C66.3622 114.586 66.0521 114.918 65.8295 115.33C65.6117 115.737 65.5005 116.184 65.4957 116.672V118.185C65.4957 118.819 65.6117 119.364 65.8438 119.818C66.0758 120.268 66.4001 120.614 66.8168 120.855C67.2334 121.092 67.7211 121.21 68.2798 121.21C68.6539 121.21 68.9924 121.158 69.2955 121.054C69.5985 120.945 69.8613 120.786 70.0838 120.578C70.3063 120.37 70.4744 120.112 70.5881 119.804L72.9886 120.074C72.8371 120.708 72.5483 121.262 72.1222 121.736C71.7008 122.205 71.161 122.569 70.5028 122.83C69.8447 123.085 69.0919 123.213 68.2443 123.213ZM80.0998 123.213C79.006 123.213 78.0614 122.986 77.266 122.531C76.4753 122.072 75.8668 121.423 75.4407 120.585C75.0146 119.742 74.8015 118.75 74.8015 117.609C74.8015 116.487 75.0146 115.502 75.4407 114.655C75.8716 113.803 76.4729 113.14 77.2447 112.666C78.0165 112.188 78.9232 111.949 79.9648 111.949C80.6372 111.949 81.2717 112.058 81.8683 112.276C82.4696 112.489 82.9999 112.82 83.4592 113.27C83.9232 113.72 84.2878 114.293 84.5529 114.989C84.8181 115.68 84.9506 116.504 84.9506 117.46V118.249H76.0089V116.516H82.4862C82.4814 116.023 82.3749 115.585 82.1665 115.202C81.9582 114.813 81.667 114.508 81.293 114.286C80.9237 114.063 80.4928 113.952 80.0004 113.952C79.4748 113.952 79.0131 114.08 78.6154 114.335C78.2177 114.586 77.9076 114.918 77.685 115.33C77.4672 115.737 77.3559 116.184 77.3512 116.672V118.185C77.3512 118.819 77.4672 119.364 77.6992 119.818C77.9312 120.268 78.2556 120.614 78.6722 120.855C79.0889 121.092 79.5766 121.21 80.1353 121.21C80.5094 121.21 80.8479 121.158 81.1509 121.054C81.454 120.945 81.7167 120.786 81.9393 120.578C82.1618 120.37 82.3299 120.112 82.4435 119.804L84.8441 120.074C84.6926 120.708 84.4038 121.262 83.9776 121.736C83.5562 122.205 83.0165 122.569 82.3583 122.83C81.7002 123.085 80.9473 123.213 80.0998 123.213ZM87.1257 123V112.091H89.6186V113.909H89.7322C89.9311 113.279 90.272 112.794 90.755 112.453C91.2427 112.107 91.799 111.935 92.424 111.935C92.5661 111.935 92.7247 111.942 92.8999 111.956C93.0798 111.965 93.2289 111.982 93.3473 112.006V114.371C93.2384 114.333 93.0656 114.3 92.8288 114.271C92.5968 114.238 92.3719 114.222 92.1541 114.222C91.6854 114.222 91.264 114.323 90.8899 114.527C90.5206 114.726 90.2294 115.003 90.0163 115.358C89.8033 115.713 89.6967 116.123 89.6967 116.587V123H87.1257ZM17.6096 137.362H14.9533C14.8775 136.927 14.7379 136.541 14.5343 136.205C14.3307 135.864 14.0774 135.575 13.7743 135.338C13.4713 135.101 13.1257 134.924 12.7374 134.805C12.3539 134.682 11.9396 134.621 11.4945 134.621C10.7038 134.621 10.003 134.82 9.39222 135.217C8.78143 135.61 8.30321 136.188 7.95756 136.95C7.61192 137.708 7.4391 138.634 7.4391 139.727C7.4391 140.84 7.61192 141.777 7.95756 142.54C8.30794 143.297 8.78616 143.87 9.39222 144.259C10.003 144.642 10.7014 144.834 11.4874 144.834C11.923 144.834 12.3302 144.777 12.709 144.663C13.0925 144.545 13.4358 144.372 13.7388 144.145C14.0466 143.918 14.3046 143.638 14.513 143.307C14.726 142.975 14.8728 142.597 14.9533 142.17L17.6096 142.185C17.5101 142.876 17.2947 143.525 16.9632 144.131C16.6365 144.737 16.208 145.272 15.6777 145.736C15.1474 146.195 14.5272 146.555 13.8169 146.815C13.1067 147.071 12.3184 147.199 11.4519 147.199C10.1735 147.199 9.03237 146.903 8.02859 146.311C7.0248 145.719 6.23408 144.865 5.65643 143.747C5.07878 142.63 4.78995 141.29 4.78995 139.727C4.78995 138.16 5.08114 136.82 5.66353 135.707C6.24592 134.59 7.039 133.735 8.04279 133.143C9.04658 132.552 10.1829 132.256 11.4519 132.256C12.2615 132.256 13.0144 132.369 13.7104 132.597C14.4064 132.824 15.0267 133.158 15.5712 133.598C16.1157 134.034 16.5632 134.569 16.9135 135.203C17.2686 135.833 17.5007 136.553 17.6096 137.362ZM24.6674 147.213C23.6021 147.213 22.6788 146.979 21.8975 146.51C21.1163 146.041 20.5102 145.385 20.0794 144.543C19.6532 143.7 19.4402 142.715 19.4402 141.588C19.4402 140.461 19.6532 139.474 20.0794 138.626C20.5102 137.779 21.1163 137.121 21.8975 136.652C22.6788 136.183 23.6021 135.949 24.6674 135.949C25.7328 135.949 26.6561 136.183 27.4373 136.652C28.2186 137.121 28.8223 137.779 29.2484 138.626C29.6793 139.474 29.8947 140.461 29.8947 141.588C29.8947 142.715 29.6793 143.7 29.2484 144.543C28.8223 145.385 28.2186 146.041 27.4373 146.51C26.6561 146.979 25.7328 147.213 24.6674 147.213ZM24.6816 145.153C25.2593 145.153 25.7422 144.995 26.1305 144.678C26.5188 144.356 26.8076 143.925 26.997 143.385C27.1911 142.845 27.2882 142.244 27.2882 141.581C27.2882 140.913 27.1911 140.31 26.997 139.77C26.8076 139.225 26.5188 138.792 26.1305 138.47C25.7422 138.148 25.2593 137.987 24.6816 137.987C24.0898 137.987 23.5974 138.148 23.2044 138.47C22.8161 138.792 22.5249 139.225 22.3308 139.77C22.1414 140.31 22.0467 140.913 22.0467 141.581C22.0467 142.244 22.1414 142.845 22.3308 143.385C22.5249 143.925 22.8161 144.356 23.2044 144.678C23.5974 144.995 24.0898 145.153 24.6816 145.153ZM39.03 142.412V136.091H41.601V147H39.1081V145.061H38.9945C38.7483 145.672 38.3435 146.171 37.78 146.56C37.2213 146.948 36.5324 147.142 35.7132 147.142C34.9983 147.142 34.3662 146.983 33.8169 146.666C33.2724 146.344 32.8463 145.878 32.5385 145.267C32.2308 144.652 32.0769 143.908 32.0769 143.037V136.091H34.6479V142.639C34.6479 143.33 34.8373 143.88 35.2161 144.287C35.5949 144.694 36.092 144.898 36.7076 144.898C37.0864 144.898 37.4533 144.805 37.8084 144.621C38.1635 144.436 38.4547 144.161 38.682 143.797C38.914 143.428 39.03 142.966 39.03 142.412ZM46.8159 140.608V147H44.2449V136.091H46.7022V137.945H46.8301C47.081 137.334 47.4811 136.848 48.0304 136.489C48.5843 136.129 49.2685 135.949 50.0829 135.949C50.8358 135.949 51.4915 136.11 52.0502 136.432C52.6137 136.754 53.0493 137.22 53.3571 137.831C53.6696 138.442 53.8234 139.183 53.8187 140.054V147H51.2477V140.452C51.2477 139.723 51.0583 139.152 50.6795 138.74C50.3055 138.328 49.787 138.122 49.1241 138.122C48.6743 138.122 48.2742 138.222 47.9238 138.42C47.5782 138.615 47.3059 138.896 47.1071 139.266C46.9129 139.635 46.8159 140.082 46.8159 140.608ZM65.0545 138.974L62.7108 139.23C62.6445 138.993 62.5285 138.771 62.3627 138.562C62.2018 138.354 61.984 138.186 61.7093 138.058C61.4347 137.93 61.0985 137.866 60.7008 137.866C60.1658 137.866 59.716 137.982 59.3514 138.214C58.9915 138.446 58.814 138.747 58.8187 139.116C58.814 139.434 58.93 139.692 59.1667 139.891C59.4082 140.089 59.8059 140.253 60.3599 140.381L62.2207 140.778C63.2529 141.001 64.0199 141.354 64.5218 141.837C65.0285 142.32 65.2842 142.952 65.2889 143.733C65.2842 144.42 65.0829 145.026 64.6852 145.551C64.2922 146.072 63.7453 146.479 63.0446 146.773C62.3438 147.066 61.5389 147.213 60.6298 147.213C59.2946 147.213 58.2198 146.934 57.4054 146.375C56.591 145.812 56.1056 145.028 55.9494 144.024L58.4565 143.783C58.5701 144.275 58.8116 144.647 59.1809 144.898C59.5502 145.149 60.0308 145.274 60.6227 145.274C61.2335 145.274 61.7235 145.149 62.0929 144.898C62.4669 144.647 62.6539 144.337 62.6539 143.967C62.6539 143.655 62.5332 143.397 62.2917 143.193C62.055 142.99 61.6857 142.833 61.1838 142.724L59.323 142.334C58.2766 142.116 57.5024 141.749 57.0005 141.233C56.4986 140.712 56.2501 140.054 56.2548 139.259C56.2501 138.586 56.4324 138.004 56.8017 137.511C57.1757 137.014 57.6942 136.631 58.3571 136.361C59.0247 136.086 59.7941 135.949 60.6653 135.949C61.9437 135.949 62.9499 136.221 63.6838 136.766C64.4224 137.31 64.8793 138.046 65.0545 138.974ZM72.2385 147.213C71.1447 147.213 70.2001 146.986 69.4047 146.531C68.6139 146.072 68.0055 145.423 67.5794 144.585C67.1532 143.742 66.9402 142.75 66.9402 141.609C66.9402 140.487 67.1532 139.502 67.5794 138.655C68.0102 137.803 68.6116 137.14 69.3833 136.666C70.1551 136.188 71.0618 135.949 72.1035 135.949C72.7759 135.949 73.4103 136.058 74.0069 136.276C74.6083 136.489 75.1386 136.82 75.5978 137.27C76.0618 137.72 76.4264 138.293 76.6916 138.989C76.9567 139.68 77.0893 140.504 77.0893 141.46V142.249H68.1475V140.516H74.6248C74.6201 140.023 74.5136 139.585 74.3052 139.202C74.0969 138.813 73.8057 138.508 73.4316 138.286C73.0623 138.063 72.6315 137.952 72.139 137.952C71.6135 137.952 71.1518 138.08 70.7541 138.335C70.3564 138.586 70.0462 138.918 69.8237 139.33C69.6059 139.737 69.4946 140.184 69.4899 140.672V142.185C69.4899 142.819 69.6059 143.364 69.8379 143.818C70.0699 144.268 70.3942 144.614 70.8109 144.855C71.2276 145.092 71.7153 145.21 72.274 145.21C72.648 145.21 72.9866 145.158 73.2896 145.054C73.5926 144.945 73.8554 144.786 74.0779 144.578C74.3005 144.37 74.4686 144.112 74.5822 143.804L76.9828 144.074C76.8313 144.708 76.5424 145.262 76.1163 145.736C75.6949 146.205 75.1551 146.569 74.497 146.83C73.8388 147.085 73.086 147.213 72.2385 147.213ZM81.8354 132.455V147H79.2644V132.455H81.8354ZM87.0502 132.455V147H84.4792V132.455H87.0502ZM89.6941 147V136.091H92.2651V147H89.6941ZM90.9867 134.543C90.5795 134.543 90.2291 134.408 89.9355 134.138C89.642 133.863 89.4952 133.534 89.4952 133.151C89.4952 132.762 89.642 132.433 89.9355 132.163C90.2291 131.889 90.5795 131.751 90.9867 131.751C91.3986 131.751 91.749 131.889 92.0378 132.163C92.3314 132.433 92.4782 132.762 92.4782 133.151C92.4782 133.534 92.3314 133.863 92.0378 134.138C91.749 134.408 91.3986 134.543 90.9867 134.543ZM97.4799 140.608V147H94.9089V136.091H97.3663V137.945H97.4941C97.7451 137.334 98.1452 136.848 98.6944 136.489C99.2484 136.129 99.9326 135.949 100.747 135.949C101.5 135.949 102.156 136.11 102.714 136.432C103.278 136.754 103.713 137.22 104.021 137.831C104.334 138.442 104.488 139.183 104.483 140.054V147H101.912V140.452C101.912 139.723 101.722 139.152 101.344 138.74C100.97 138.328 100.451 138.122 99.7882 138.122C99.3384 138.122 98.9383 138.222 98.5879 138.42C98.2422 138.615 97.97 138.896 97.7711 139.266C97.577 139.635 97.4799 140.082 97.4799 140.608ZM111.841 151.318C110.917 151.318 110.124 151.193 109.461 150.942C108.799 150.696 108.266 150.364 107.863 149.947C107.461 149.531 107.182 149.069 107.025 148.562L109.341 148.001C109.445 148.214 109.596 148.425 109.795 148.634C109.994 148.847 110.262 149.022 110.598 149.159C110.939 149.301 111.367 149.372 111.883 149.372C112.613 149.372 113.216 149.195 113.694 148.839C114.173 148.489 114.412 147.911 114.412 147.107V145.04H114.284C114.151 145.305 113.957 145.577 113.702 145.857C113.451 146.136 113.117 146.37 112.7 146.56C112.288 146.749 111.77 146.844 111.145 146.844C110.307 146.844 109.547 146.647 108.865 146.254C108.188 145.857 107.648 145.265 107.246 144.479C106.848 143.688 106.649 142.698 106.649 141.51C106.649 140.312 106.848 139.301 107.246 138.477C107.648 137.649 108.19 137.021 108.872 136.595C109.554 136.164 110.314 135.949 111.152 135.949C111.791 135.949 112.317 136.058 112.729 136.276C113.145 136.489 113.477 136.747 113.723 137.05C113.969 137.348 114.156 137.63 114.284 137.895H114.426V136.091H116.961V147.178C116.961 148.11 116.739 148.882 116.294 149.493C115.849 150.104 115.24 150.561 114.469 150.864C113.697 151.167 112.821 151.318 111.841 151.318ZM111.862 144.827C112.407 144.827 112.871 144.694 113.254 144.429C113.638 144.164 113.929 143.783 114.128 143.286C114.327 142.788 114.426 142.192 114.426 141.496C114.426 140.809 114.327 140.208 114.128 139.692C113.934 139.176 113.645 138.776 113.261 138.491C112.882 138.203 112.416 138.058 111.862 138.058C111.289 138.058 110.811 138.207 110.427 138.506C110.044 138.804 109.755 139.214 109.561 139.734C109.367 140.25 109.27 140.838 109.27 141.496C109.27 142.163 109.367 142.748 109.561 143.25C109.76 143.747 110.051 144.135 110.434 144.415C110.823 144.689 111.299 144.827 111.862 144.827Z" fill="#01001E"/>
<path d="M61.3042 54.0868C64.7636 54.0868 68.0812 52.7126 70.5274 50.2665C72.9735 47.8204 74.3477 44.5027 74.3477 41.0434C74.3477 37.584 72.9735 34.2664 70.5274 31.8203C68.0812 29.3741 64.7636 27.9999 61.3042 27.9999M61.3042 54.0868C57.8449 54.0868 54.5272 52.7126 52.0811 50.2665C49.635 47.8204 48.2607 44.5027 48.2607 41.0434C48.2607 37.584 49.635 34.2664 52.0811 31.8203C54.5272 29.3741 57.8449 27.9999 61.3042 27.9999M61.3042 54.0868C64.1868 54.0868 66.5216 48.246 66.5216 41.0434C66.5216 33.8408 64.1868 27.9999 61.3042 27.9999M61.3042 54.0868C58.4216 54.0868 56.0868 48.246 56.0868 41.0434C56.0868 33.8408 58.4216 27.9999 61.3042 27.9999M49.4607 41.0434H73.2442" stroke="#233469" stroke-width="4.13" stroke-linecap="round" stroke-linejoin="round"/>
<path d="M61.3042 59.9564V74.9563M61.3042 74.9563C66.114 70.737 72.2983 68.418 78.6964 68.4346C82.7712 68.4346 84.8086 68.4346 85.7086 67.8607C86.2486 67.5137 86.4677 67.292 86.8147 66.752C87.3912 65.852 87.3912 64.2477 87.3912 61.0338V36.8773C87.3912 33.1521 87.3912 31.2921 85.959 29.7816C84.5269 28.2712 83.0634 28.1929 80.1312 28.039C78.489 27.9515 76.8422 28.0135 75.2112 28.2242M61.3042 74.9563C56.5277 70.7485 50.3295 68.4268 43.9121 68.4346C39.8373 68.4346 37.7999 68.4346 36.8999 67.8581C36.3599 67.5137 36.1382 67.292 35.7912 66.752C35.2173 65.852 35.2173 64.2451 35.2173 61.0338V36.8773C35.2173 33.1521 35.2173 31.2921 36.6495 29.7816C38.079 28.2738 39.5451 28.1956 42.4773 28.039C44.1195 27.9455 45.7668 28.0075 47.3973 28.2242" stroke="#233469" stroke-width="4.13" stroke-linecap="round" stroke-linejoin="round"/>
</svg>
