<svg width="26" height="24" viewBox="0 0 26 24" fill="none" xmlns="http://www.w3.org/2000/svg">
<path d="M13 0L0 3V5L13 2L26 5V3L13 0ZM7 6C3.773 6 0.625 7.313 0.625 7.313L0 7.593V23H11.281C11.629 23.598 12.261 24 13 24C13.738 24 14.371 23.598 14.719 23H26V7.594L25.375 7.313C25.375 7.313 22.227 6 19 6C16.082 6 13.52 6.98 13 7.188C12.48 6.98 9.918 6 7 6ZM7 8C8.934 8 11 8.625 12 8.969V20.094C10.887 19.727 9.059 19.219 7 19.219C4.898 19.219 3.187 19.703 2 20.094V8.969C2.77 8.69 4.8 8 7 8ZM19 8C21.2 8 23.23 8.691 24 8.969V20.094C22.812 19.704 21.102 19.219 19 19.219C16.941 19.219 15.113 19.727 14 20.094V8.969C15 8.625 17.066 8 19 8Z" fill="#E9F5FF"/>
</svg>
