<svg width="33" height="27" viewBox="0 0 33 27" fill="none" xmlns="http://www.w3.org/2000/svg">
<path d="M1.81543 4.065L10.0654 1.065L18.3154 4.065L14.5654 6.315V8.565C14.5654 8.565 13.5649 7.815 10.0654 7.815C6.56593 7.815 5.56543 8.565 5.56543 8.565V6.315L1.81543 4.065ZM1.81543 4.065V10.065" stroke="white" stroke-width="2.13" stroke-linecap="round" stroke-linejoin="round"/>
<path d="M14.5654 7.815V9.1485C14.5654 11.7255 12.5509 13.815 10.0654 13.815C7.57993 13.815 5.56543 11.7255 5.56543 9.1485V7.815M21.0424 11.61C21.0424 11.61 21.7699 11.0805 24.3154 11.0805C26.8609 11.0805 27.5884 11.6085 27.5884 11.6085M21.0424 11.61V10.065L18.3154 8.565L24.3154 6.315L30.3154 8.565L27.5884 10.065V11.6085M21.0424 11.61V12.042C21.0424 12.9101 21.3873 13.7426 22.0011 14.3564C22.6149 14.9702 23.4474 15.315 24.3154 15.315C25.1835 15.315 26.016 14.9702 26.6298 14.3564C27.2436 13.7426 27.5884 12.9101 27.5884 12.042V11.6085M22.0654 25.065H27.6229C28.7824 25.065 29.7034 24.501 30.5314 23.712C32.2264 22.098 29.4439 20.808 28.3834 20.1765C27.4403 19.6198 26.393 19.2625 25.3064 19.1265C24.2197 18.9905 23.1166 19.0789 22.0654 19.386M4.64293 18.954C3.22843 19.7445 -0.481072 21.357 1.77793 23.3745C2.88193 24.36 4.11043 25.065 5.65693 25.065H14.4739C16.0189 25.065 17.2489 24.36 18.3529 23.3745C20.6119 21.357 16.9024 19.7445 15.4879 18.954C12.1699 17.1015 7.96093 17.1015 4.64293 18.954Z" stroke="white" stroke-width="2.13" stroke-linecap="round" stroke-linejoin="round"/>
</svg>
