<svg width="25" height="24" viewBox="0 0 25 24" fill="none" xmlns="http://www.w3.org/2000/svg">
<path d="M6.25 8.8421C7.0788 8.8421 7.87366 8.5094 8.45971 7.91718C9.04576 7.32496 9.375 6.52174 9.375 5.68421C9.375 4.84668 9.04576 4.04346 8.45971 3.45124C7.87366 2.85902 7.0788 2.52632 6.25 2.52632C5.4212 2.52632 4.62634 2.85902 4.04029 3.45124C3.45424 4.04346 3.125 4.84668 3.125 5.68421C3.125 6.52174 3.45424 7.32496 4.04029 7.91718C4.62634 8.5094 5.4212 8.8421 6.25 8.8421ZM6.25 11.3684C5.51131 11.3684 4.77986 11.2214 4.09741 10.9357C3.41495 10.6501 2.79485 10.2314 2.27252 9.70355C1.75019 9.17573 1.33586 8.5491 1.05318 7.85946C0.770495 7.16982 0.625 6.43067 0.625 5.68421C0.625 4.93775 0.770495 4.1986 1.05318 3.50896C1.33586 2.81932 1.75019 2.19269 2.27252 1.66487C2.79485 1.13704 3.41495 0.718343 4.09741 0.432685C4.77986 0.147027 5.51131 -1.11231e-08 6.25 0C7.74184 2.24642e-08 9.17258 0.59887 10.2275 1.66487C11.2824 2.73086 11.875 4.17666 11.875 5.68421C11.875 7.19176 11.2824 8.63756 10.2275 9.70355C9.17258 10.7695 7.74184 11.3684 6.25 11.3684ZM19.375 13.8947C20.038 13.8947 20.6739 13.6286 21.1428 13.1548C21.6116 12.681 21.875 12.0384 21.875 11.3684C21.875 10.6984 21.6116 10.0558 21.1428 9.58205C20.6739 9.10827 20.038 8.8421 19.375 8.8421C18.712 8.8421 18.0761 9.10827 17.6072 9.58205C17.1384 10.0558 16.875 10.6984 16.875 11.3684C16.875 12.0384 17.1384 12.681 17.6072 13.1548C18.0761 13.6286 18.712 13.8947 19.375 13.8947ZM19.375 16.4211C18.0489 16.4211 16.7771 15.8887 15.8395 14.9412C14.9018 13.9936 14.375 12.7085 14.375 11.3684C14.375 10.0284 14.9018 8.74322 15.8395 7.79567C16.7771 6.84812 18.0489 6.31579 19.375 6.31579C20.7011 6.31579 21.9729 6.84812 22.9105 7.79567C23.8482 8.74322 24.375 10.0284 24.375 11.3684C24.375 12.7085 23.8482 13.9936 22.9105 14.9412C21.9729 15.8887 20.7011 16.4211 19.375 16.4211ZM22.5 24V23.3684C22.5 22.5309 22.1708 21.7277 21.5847 21.1355C20.9987 20.5432 20.2038 20.2105 19.375 20.2105C18.5462 20.2105 17.7513 20.5432 17.1653 21.1355C16.5792 21.7277 16.25 22.5309 16.25 23.3684V24H13.75V23.3684C13.75 22.622 13.8955 21.8828 14.1782 21.1932C14.4609 20.5035 14.8752 19.8769 15.3975 19.3491C15.9199 18.8212 16.5399 18.4026 17.2224 18.1169C17.9049 17.8312 18.6363 17.6842 19.375 17.6842C20.1137 17.6842 20.8451 17.8312 21.5276 18.1169C22.2101 18.4026 22.8301 18.8212 23.3525 19.3491C23.8748 19.8769 24.2891 20.5035 24.5718 21.1932C24.8545 21.8828 25 22.622 25 23.3684V24H22.5ZM10 24V18.9474C10 18.4497 9.903 17.957 9.71455 17.4972C9.52609 17.0374 9.24987 16.6197 8.90165 16.2678C8.55343 15.9159 8.14003 15.6368 7.68506 15.4464C7.23009 15.2559 6.74246 15.1579 6.25 15.1579C5.75754 15.1579 5.26991 15.2559 4.81494 15.4464C4.35997 15.6368 3.94657 15.9159 3.59835 16.2678C3.25013 16.6197 2.97391 17.0374 2.78545 17.4972C2.597 17.957 2.5 18.4497 2.5 18.9474V24H0V18.9474C0 17.2723 0.65848 15.6659 1.83058 14.4814C3.00269 13.297 4.5924 12.6316 6.25 12.6316C7.9076 12.6316 9.49732 13.297 10.6694 14.4814C11.8415 15.6659 12.5 17.2723 12.5 18.9474V24H10Z" fill="#E9F5FF"/>
</svg>
