<svg width="25" height="24" viewBox="0 0 25 24" fill="none" xmlns="http://www.w3.org/2000/svg">
<path d="M17.8571 0C14.5714 0 11.9048 2.62244 11.9048 5.85366C11.9048 9.08488 14.5714 11.7073 17.8571 11.7073C21.1429 11.7073 23.8095 9.08488 23.8095 5.85366C23.8095 2.62244 21.1429 0 17.8571 0ZM17.8571 9.36585C15.881 9.36585 14.2857 7.79707 14.2857 5.85366C14.2857 3.91024 15.881 2.34146 17.8571 2.34146C19.8333 2.34146 21.4286 3.91024 21.4286 5.85366C21.4286 7.79707 19.8333 9.36585 17.8571 9.36585ZM21.4286 16.3902H19.0476C19.0476 14.9854 18.1548 13.721 16.8214 13.2293L9.4881 10.5366H0V23.4146H7.14286V21.7288L15.4762 24L25 21.0732V19.9024C25 17.959 23.4048 16.3902 21.4286 16.3902ZM4.7619 21.0732H2.38095V12.878H4.7619V21.0732ZM15.4405 21.5532L7.14286 19.3171V12.878H9.05952L15.9881 15.4185C16.3929 15.5707 16.6667 15.9571 16.6667 16.3902C16.6667 16.3902 14.2857 16.3317 13.9286 16.2146L11.0952 15.2898L10.3452 17.5141L13.1786 18.439C13.7857 18.638 14.4167 18.7317 15.0595 18.7317H21.4286C21.8929 18.7317 22.3095 19.0127 22.5 19.399L15.4405 21.5532Z" fill="#E9F5FF"/>
</svg>
