<svg width="48" height="48" viewBox="0 0 48 48" fill="none" xmlns="http://www.w3.org/2000/svg">
<path d="M34.606 4.5H13.394C11.0352 4.5 8.77294 5.43704 7.10499 7.10499C5.43704 8.77294 4.5 11.0352 4.5 13.394V34.606C4.5 36.9648 5.43704 39.2271 7.10499 40.895C8.77294 42.563 11.0352 43.5 13.394 43.5H34.606C36.9648 43.5 39.2271 42.563 40.895 40.895C42.563 39.2271 43.5 36.9648 43.5 34.606V13.394C43.5 11.0352 42.563 8.77294 40.895 7.10499C39.2271 5.43704 36.9648 4.5 34.606 4.5ZM17.686 35.984C17.6923 36.0929 17.6762 36.2019 17.6388 36.3043C17.6014 36.4067 17.5435 36.5004 17.4686 36.5797C17.3937 36.6589 17.3033 36.722 17.2032 36.765C17.103 36.8081 16.995 36.8302 16.886 36.83H13.326C13.1113 36.8248 12.9072 36.7355 12.7577 36.5814C12.6081 36.4274 12.5249 36.2207 12.526 36.006V21.2C12.5231 21.0931 12.5416 20.9867 12.5805 20.8871C12.6193 20.7875 12.6778 20.6967 12.7524 20.62C12.827 20.5434 12.9162 20.4825 13.0147 20.4409C13.1132 20.3994 13.2191 20.378 13.326 20.378H16.886C16.9929 20.378 17.0988 20.3994 17.1973 20.4409C17.2958 20.4825 17.385 20.5434 17.4596 20.62C17.5342 20.6967 17.5927 20.7875 17.6315 20.8871C17.6704 20.9867 17.6889 21.0931 17.686 21.2V35.984ZM15.04 17.264C14.6546 17.2611 14.2735 17.1823 13.9185 17.0322C13.5635 16.882 13.2416 16.6634 12.9711 16.3888C12.7006 16.1142 12.4868 15.789 12.342 15.4319C12.1972 15.0747 12.1241 14.6924 12.127 14.307C12.1299 13.9216 12.2087 13.5405 12.3588 13.1855C12.509 12.8305 12.7276 12.5086 13.0022 12.2381C13.2768 11.9676 13.602 11.7538 13.9591 11.609C14.3163 11.4642 14.6986 11.3911 15.084 11.394C15.849 11.4189 16.5741 11.7417 17.1044 12.2937C17.6347 12.8457 17.9283 13.583 17.9226 14.3485C17.9168 15.1139 17.6122 15.8467 17.0736 16.3907C16.5351 16.9346 15.8053 17.2466 15.04 17.26M36.674 35.96C36.6731 36.1621 36.5937 36.3559 36.4527 36.5007C36.3117 36.6454 36.12 36.7298 35.918 36.736H32.16C31.9577 36.7298 31.7657 36.6451 31.6246 36.4999C31.4835 36.3548 31.4044 36.1604 31.404 35.958V29.11C31.404 28.088 31.716 24.664 28.692 24.664C26.334 24.664 25.868 27.064 25.778 28.132V36.114C25.7781 36.3168 25.6992 36.5116 25.5581 36.6572C25.417 36.8028 25.2247 36.8878 25.022 36.894H21.376C21.1695 36.8935 20.9716 36.8111 20.8257 36.6648C20.6799 36.5186 20.598 36.3205 20.598 36.114V21.128C20.6042 20.9253 20.6892 20.733 20.8348 20.5919C20.9804 20.4508 21.1752 20.3719 21.378 20.372H25.022C25.2248 20.3719 25.4196 20.4508 25.5652 20.5919C25.7108 20.733 25.7958 20.9253 25.802 21.128V22.418C26.3341 21.6392 27.0687 21.0205 27.9265 20.6286C28.7844 20.2367 29.733 20.0864 30.67 20.194C36.74 20.194 36.718 25.864 36.718 29.088L36.674 35.96Z" fill="#CEDBFB"/>
</svg>
