<svg width="112" height="147" viewBox="0 0 112 147" fill="none" xmlns="http://www.w3.org/2000/svg">
<path d="M55.6597 2C82.9857 2.00011 105.138 24.1525 105.138 51.4785C105.138 78.8044 82.9856 100.956 55.6597 100.956C28.3336 100.956 6.1813 78.8045 6.18115 51.4785C6.18115 24.1524 28.3336 2 55.6597 2Z" stroke="#233469" stroke-width="4"/>
<path d="M55.3048 59.826C42.7831 59.826 40.5657 47.3478 40.1744 37.4478C40.0657 34.6957 40.0092 33.3174 41.044 32.0457C42.0787 30.7718 43.3157 30.5631 45.7918 30.1457C48.9364 29.6306 52.1184 29.3782 55.3048 29.3913C59.1809 29.3913 62.3766 29.7326 64.82 30.1457C67.294 30.5631 68.5331 30.7718 69.5657 32.0457C70.6005 33.3196 70.5461 34.6957 70.4352 37.4478C70.0439 47.3456 67.8266 59.826 55.3048 59.826Z" fill="#FBB142"/>
<path opacity="0.75" d="M67.5654 52.0478L73.6894 48.6457C75.3241 47.737 76.1415 47.2826 76.5937 46.5174C77.0437 45.7522 77.0437 44.8174 77.0437 42.9457V42.787C77.0437 40.5196 77.0437 39.3848 76.4285 38.5304C75.8133 37.6761 74.7372 37.3174 72.585 36.6L70.522 35.9131L70.485 36.0978C70.4734 36.508 70.4575 36.958 70.4372 37.4478C70.2459 42.2848 69.6176 47.737 67.5676 52.0478M40.1741 37.4478C40.3633 42.2848 40.9915 47.737 43.0437 52.0478L36.9198 48.6457C35.285 47.737 34.4654 47.2826 34.0154 46.5174C33.5654 45.7522 33.5654 44.8174 33.5654 42.9457V42.787C33.5654 40.5196 33.5654 39.3848 34.1806 38.5304C34.7959 37.6761 35.872 37.3174 38.0241 36.6L40.0872 35.9131L40.1241 36.1022C40.1357 36.5094 40.1517 36.9587 40.172 37.45" fill="#FBB349"/>
<path fill-rule="evenodd" clip-rule="evenodd" d="M40.6309 72.8695C40.6309 72.4371 40.8026 72.0224 41.1084 71.7166C41.4142 71.4109 41.8289 71.2391 42.2613 71.2391H68.3483C68.7807 71.2391 69.1954 71.4109 69.5012 71.7166C69.8069 72.0224 69.9787 72.4371 69.9787 72.8695C69.9787 73.302 69.8069 73.7167 69.5012 74.0224C69.1954 74.3282 68.7807 74.5 68.3483 74.5H42.2613C41.8289 74.5 41.4142 74.3282 41.1084 74.0224C40.8026 73.7167 40.6309 73.302 40.6309 72.8695Z" fill="#FBB042"/>
<path d="M62.8222 71.2391H47.7896L48.4352 67.4348C48.5337 66.9422 48.7997 66.4988 49.1881 66.1802C49.5765 65.8616 50.0633 65.6873 50.5656 65.687H60.0439C60.5467 65.6868 61.0339 65.8608 61.4228 66.1795C61.8116 66.4982 62.078 66.9418 62.1765 67.4348L62.8222 71.2391Z" fill="#233469"/>
<path d="M55.3046 59.8261C54.7394 59.8261 54.1959 59.8014 53.6741 59.7521V65.6869H56.935V59.7521C56.393 59.8023 55.8489 59.8269 55.3046 59.8261ZM53.4481 38.137C54.2741 36.6522 54.6872 35.9131 55.3046 35.9131C55.922 35.9131 56.335 36.6522 57.1611 38.137L57.3742 38.5196C57.6089 38.9413 57.7263 39.15 57.9089 39.2891C58.0937 39.4283 58.322 39.4804 58.7785 39.5826L59.1915 39.6783C60.7959 40.0413 61.5981 40.2217 61.7894 40.8348C61.9807 41.4478 61.4329 42.0891 60.3394 43.3674L60.0568 43.6978C59.7459 44.0609 59.5894 44.2413 59.5198 44.4674C59.4502 44.6935 59.4742 44.9348 59.5198 45.4196L59.5633 45.8609C59.7285 47.5674 59.8111 48.4217 59.3133 48.8C58.8133 49.1783 58.0611 48.8326 56.5589 48.1413L56.172 47.963C55.7437 47.7674 55.5307 47.6696 55.3046 47.6696C55.0785 47.6696 54.8655 47.7674 54.4372 47.963L54.0502 48.1413C52.5481 48.8348 51.7959 49.1783 51.2959 48.8C50.7959 48.4217 50.8807 47.5674 51.0459 45.8609L51.0894 45.4196C51.135 44.9348 51.1589 44.6935 51.0894 44.4674C51.0198 44.2413 50.8633 44.0609 50.5524 43.6978L50.2698 43.3674C49.1763 42.0891 48.6285 41.45 48.8198 40.8348C49.0111 40.2217 49.8133 40.0413 51.4176 39.6783L51.8307 39.5826C52.2872 39.4804 52.5155 39.4304 52.7002 39.2891C52.8828 39.15 53.0002 38.9413 53.235 38.5196L53.4481 38.137Z" fill="#233469"/>
<path d="M24.6889 112.105C24.6226 111.485 24.3433 111.002 23.8509 110.656C23.3632 110.311 22.7287 110.138 21.9474 110.138C21.3982 110.138 20.9271 110.221 20.5341 110.387C20.1411 110.552 19.8404 110.777 19.6321 111.061C19.4238 111.345 19.3172 111.67 19.3125 112.034C19.3125 112.337 19.3812 112.6 19.5185 112.823C19.6605 113.045 19.8523 113.235 20.0938 113.391C20.3352 113.542 20.6028 113.67 20.8963 113.774C21.1899 113.878 21.4858 113.966 21.7841 114.037L23.1477 114.378C23.697 114.506 24.2249 114.679 24.7315 114.896C25.2429 115.114 25.6998 115.389 26.1023 115.72C26.5095 116.052 26.8314 116.452 27.0682 116.921C27.3049 117.389 27.4233 117.939 27.4233 118.568C27.4233 119.421 27.2055 120.171 26.7699 120.82C26.3343 121.464 25.7046 121.968 24.8807 122.333C24.0616 122.692 23.0696 122.872 21.9048 122.872C20.7732 122.872 19.7907 122.697 18.9574 122.347C18.1288 121.996 17.4801 121.485 17.0114 120.813C16.5474 120.14 16.2964 119.321 16.2585 118.355H18.8509C18.8887 118.862 19.045 119.283 19.3196 119.619C19.5942 119.956 19.9517 120.207 20.3921 120.372C20.8371 120.538 21.3343 120.621 21.8835 120.621C22.4564 120.621 22.9583 120.536 23.3892 120.365C23.8248 120.19 24.1657 119.949 24.4119 119.641C24.6582 119.328 24.7836 118.964 24.7884 118.547C24.7836 118.168 24.6724 117.856 24.4546 117.61C24.2367 117.359 23.9314 117.15 23.5384 116.985C23.1501 116.814 22.6956 116.663 22.1747 116.53L20.5199 116.104C19.322 115.796 18.375 115.33 17.679 114.705C16.9877 114.075 16.6421 113.239 16.6421 112.198C16.6421 111.341 16.8741 110.59 17.3381 109.946C17.8068 109.302 18.4437 108.803 19.2486 108.448C20.0535 108.088 20.965 107.908 21.983 107.908C23.0152 107.908 23.9195 108.088 24.696 108.448C25.4773 108.803 26.0904 109.298 26.5355 109.932C26.9806 110.562 27.2102 111.286 27.2244 112.105H24.6889ZM35.1062 111.743V113.732H28.8349V111.743H35.1062ZM30.3832 109.129H32.9542V119.371C32.9542 119.717 33.0063 119.982 33.1104 120.166C33.2193 120.346 33.3614 120.469 33.5366 120.536C33.7118 120.602 33.9059 120.635 34.119 120.635C34.28 120.635 34.4267 120.623 34.5593 120.6C34.6966 120.576 34.8008 120.555 34.8718 120.536L35.305 122.546C35.1677 122.593 34.9712 122.645 34.7156 122.702C34.4646 122.759 34.1568 122.792 33.7923 122.801C33.1483 122.82 32.5683 122.723 32.0522 122.51C31.5361 122.292 31.1265 121.956 30.8235 121.502C30.5252 121.047 30.3784 120.479 30.3832 119.797V109.129ZM37.2564 122.652V111.743H39.7493V113.561H39.8629C40.0618 112.932 40.4027 112.446 40.8857 112.105C41.3733 111.76 41.9297 111.587 42.5547 111.587C42.6967 111.587 42.8554 111.594 43.0305 111.608C43.2105 111.618 43.3596 111.634 43.478 111.658V114.023C43.3691 113.985 43.1963 113.952 42.9595 113.923C42.7275 113.89 42.5026 113.874 42.2848 113.874C41.8161 113.874 41.3947 113.976 41.0206 114.179C40.6513 114.378 40.3601 114.655 40.147 115.01C39.934 115.365 39.8274 115.775 39.8274 116.239V122.652H37.2564ZM49.5664 122.865C48.4727 122.865 47.5281 122.638 46.7326 122.183C45.9419 121.724 45.3335 121.075 44.9073 120.237C44.4812 119.395 44.2681 118.403 44.2681 117.262C44.2681 116.139 44.4812 115.155 44.9073 114.307C45.3382 113.455 45.9395 112.792 46.7113 112.318C47.4831 111.84 48.3898 111.601 49.4315 111.601C50.1038 111.601 50.7383 111.71 51.3349 111.928C51.9362 112.141 52.4665 112.472 52.9258 112.922C53.3898 113.372 53.7544 113.945 54.0195 114.641C54.2847 115.332 54.4173 116.156 54.4173 117.112V117.901H45.4755V116.168H51.9528C51.948 115.675 51.8415 115.237 51.6332 114.854C51.4248 114.466 51.1336 114.16 50.7596 113.938C50.3903 113.715 49.9594 113.604 49.467 113.604C48.9414 113.604 48.4798 113.732 48.082 113.987C47.6843 114.238 47.3742 114.57 47.1516 114.982C46.9338 115.389 46.8226 115.836 46.8178 116.324V117.837C46.8178 118.471 46.9338 119.016 47.1658 119.47C47.3979 119.92 47.7222 120.266 48.1389 120.507C48.5555 120.744 49.0432 120.862 49.6019 120.862C49.976 120.862 50.3145 120.81 50.6175 120.706C50.9206 120.597 51.1834 120.439 51.4059 120.23C51.6284 120.022 51.7965 119.764 51.9102 119.456L54.3107 119.726C54.1592 120.36 53.8704 120.914 53.4443 121.388C53.0229 121.857 52.4831 122.221 51.8249 122.482C51.1668 122.737 50.414 122.865 49.5664 122.865ZM56.5923 122.652V111.743H59.0497V113.597H59.1776C59.4048 112.972 59.7813 112.484 60.3068 112.134C60.8324 111.779 61.4598 111.601 62.1889 111.601C62.9276 111.601 63.5502 111.781 64.0568 112.141C64.5682 112.496 64.928 112.981 65.1364 113.597H65.25C65.4915 112.991 65.8987 112.508 66.4716 112.148C67.0492 111.783 67.7334 111.601 68.5242 111.601C69.5279 111.601 70.3471 111.918 70.9815 112.553C71.616 113.187 71.9332 114.113 71.9332 115.33V122.652H69.3551V115.727C69.3551 115.05 69.1752 114.556 68.8153 114.243C68.4555 113.926 68.0152 113.767 67.4943 113.767C66.8741 113.767 66.3887 113.961 66.0384 114.35C65.6927 114.733 65.5199 115.233 65.5199 115.848V122.652H62.9986V115.621C62.9986 115.057 62.8281 114.608 62.4872 114.271C62.151 113.935 61.7107 113.767 61.1662 113.767C60.7969 113.767 60.4607 113.862 60.1577 114.051C59.8546 114.236 59.6132 114.499 59.4332 114.84C59.2533 115.176 59.1634 115.569 59.1634 116.019V122.652H56.5923ZM77.6808 122.872C76.9895 122.872 76.3668 122.749 75.8129 122.503C75.2636 122.252 74.828 121.883 74.506 121.395C74.1888 120.907 74.0302 120.306 74.0302 119.591C74.0302 118.976 74.1438 118.467 74.3711 118.064C74.5984 117.662 74.9085 117.34 75.3015 117.098C75.6945 116.857 76.1372 116.674 76.6296 116.551C77.1268 116.423 77.6405 116.331 78.1708 116.274C78.81 116.208 79.3285 116.149 79.7262 116.097C80.1239 116.04 80.4128 115.955 80.5927 115.841C80.7774 115.723 80.8697 115.54 80.8697 115.294V115.252C80.8697 114.717 80.7111 114.302 80.3938 114.009C80.0766 113.715 79.6197 113.568 79.0231 113.568C78.3934 113.568 77.8938 113.706 77.5245 113.98C77.1599 114.255 76.9137 114.579 76.7859 114.953L74.3853 114.612C74.5747 113.95 74.8872 113.396 75.3228 112.95C75.7584 112.501 76.2911 112.164 76.9208 111.942C77.5506 111.715 78.2466 111.601 79.0089 111.601C79.5345 111.601 80.0577 111.663 80.5785 111.786C81.0993 111.909 81.5752 112.112 82.006 112.396C82.4369 112.676 82.7826 113.057 83.043 113.54C83.3081 114.023 83.4407 114.627 83.4407 115.351V122.652H80.9691V121.154H80.8839C80.7276 121.457 80.5075 121.741 80.2234 122.006C79.944 122.266 79.5913 122.477 79.1651 122.638C78.7437 122.794 78.2489 122.872 77.6808 122.872ZM78.3484 120.983C78.8645 120.983 79.3119 120.881 79.6907 120.678C80.0695 120.469 80.3607 120.195 80.5643 119.854C80.7726 119.513 80.8768 119.141 80.8768 118.739V117.453C80.7963 117.52 80.659 117.581 80.4649 117.638C80.2755 117.695 80.0624 117.744 79.8256 117.787C79.5889 117.83 79.3545 117.868 79.1225 117.901C78.8905 117.934 78.6893 117.962 78.5188 117.986C78.1353 118.038 77.792 118.123 77.489 118.242C77.186 118.36 76.9469 118.526 76.7717 118.739C76.5965 118.947 76.5089 119.217 76.5089 119.548C76.5089 120.022 76.6817 120.379 77.0274 120.621C77.373 120.862 77.8133 120.983 78.3484 120.983ZM88.1282 111.743L90.3299 115.77L92.5671 111.743H95.2873L91.9989 117.198L95.3441 122.652H92.6381L90.3299 118.725L88.043 122.652H85.3157L88.6396 117.198L85.4009 111.743H88.1282ZM28.1948 136.105C28.1285 135.485 27.8491 135.002 27.3567 134.656C26.869 134.311 26.2346 134.138 25.4533 134.138C24.9041 134.138 24.4329 134.221 24.04 134.387C23.647 134.552 23.3463 134.777 23.138 135.061C22.9296 135.345 22.8231 135.67 22.8184 136.034C22.8184 136.337 22.887 136.6 23.0243 136.823C23.1664 137.045 23.3581 137.235 23.5996 137.391C23.8411 137.542 24.1086 137.67 24.4022 137.774C24.6957 137.878 24.9917 137.966 25.29 138.037L26.6536 138.378C27.2028 138.506 27.7308 138.679 28.2374 138.896C28.7488 139.114 29.2057 139.389 29.6081 139.72C30.0153 140.052 30.3373 140.452 30.574 140.921C30.8108 141.389 30.9292 141.939 30.9292 142.568C30.9292 143.421 30.7114 144.171 30.2758 144.82C29.8401 145.464 29.2104 145.968 28.3865 146.333C27.5674 146.692 26.5755 146.872 25.4107 146.872C24.2791 146.872 23.2966 146.697 22.4633 146.347C21.6347 145.996 20.986 145.485 20.5172 144.813C20.0532 144.14 19.8023 143.321 19.7644 142.355H22.3567C22.3946 142.862 22.5508 143.283 22.8255 143.619C23.1001 143.956 23.4576 144.207 23.8979 144.372C24.343 144.538 24.8401 144.621 25.3894 144.621C25.9623 144.621 26.4642 144.536 26.8951 144.365C27.3307 144.19 27.6716 143.949 27.9178 143.641C28.164 143.328 28.2895 142.964 28.2942 142.547C28.2895 142.168 28.1782 141.856 27.9604 141.61C27.7426 141.359 27.4372 141.15 27.0442 140.985C26.656 140.814 26.2014 140.663 25.6806 140.53L24.0258 140.104C22.8278 139.796 21.8809 139.33 21.1848 138.705C20.4936 138.075 20.1479 137.239 20.1479 136.198C20.1479 135.341 20.3799 134.59 20.8439 133.946C21.3127 133.302 21.9495 132.803 22.7544 132.448C23.5594 132.088 24.4708 131.908 25.4888 131.908C26.521 131.908 27.4254 132.088 28.2019 132.448C28.9831 132.803 29.5963 133.298 30.0414 133.932C30.4865 134.562 30.7161 135.286 30.7303 136.105H28.1948ZM37.9231 146.865C36.8341 146.865 35.899 146.626 35.1177 146.148C34.3412 145.67 33.7423 145.009 33.3209 144.166C32.9042 143.319 32.6959 142.343 32.6959 141.24C32.6959 140.132 32.9089 139.155 33.3351 138.307C33.7612 137.455 34.3625 136.792 35.139 136.318C35.9203 135.84 36.8436 135.601 37.9089 135.601C38.7943 135.601 39.578 135.764 40.2598 136.091C40.9463 136.413 41.4932 136.87 41.9004 137.462C42.3076 138.049 42.5396 138.735 42.5964 139.521H40.139C40.0396 138.996 39.8029 138.558 39.4288 138.208C39.0595 137.852 38.5647 137.675 37.9444 137.675C37.4189 137.675 36.9572 137.817 36.5595 138.101C36.1618 138.38 35.8516 138.783 35.6291 139.308C35.4113 139.834 35.3024 140.464 35.3024 141.198C35.3024 141.941 35.4113 142.58 35.6291 143.115C35.8469 143.646 36.1523 144.055 36.5453 144.344C36.943 144.628 37.4094 144.77 37.9444 144.77C38.3232 144.77 38.6618 144.699 38.9601 144.557C39.2631 144.41 39.5164 144.2 39.72 143.925C39.9236 143.65 40.0633 143.316 40.139 142.923H42.5964C42.5349 143.695 42.3076 144.379 41.9146 144.976C41.5216 145.568 40.9866 146.032 40.3095 146.368C39.6324 146.7 38.8369 146.865 37.9231 146.865ZM47.2786 140.26V146.652H44.7076V132.107H47.2218V137.597H47.3496C47.6053 136.981 48.0007 136.496 48.5357 136.141C49.0755 135.781 49.762 135.601 50.5954 135.601C51.3529 135.601 52.0134 135.76 52.5769 136.077C53.1403 136.394 53.5759 136.858 53.8837 137.469C54.1962 138.08 54.3525 138.825 54.3525 139.706V146.652H51.7814V140.104C51.7814 139.37 51.592 138.799 51.2133 138.392C50.8392 137.98 50.3136 137.774 49.6365 137.774C49.182 137.774 48.7748 137.874 48.415 138.073C48.0598 138.267 47.7805 138.548 47.5769 138.918C47.378 139.287 47.2786 139.735 47.2786 140.26ZM61.7317 146.865C60.6664 146.865 59.7431 146.631 58.9618 146.162C58.1806 145.693 57.5745 145.038 57.1436 144.195C56.7175 143.352 56.5044 142.367 56.5044 141.24C56.5044 140.113 56.7175 139.126 57.1436 138.279C57.5745 137.431 58.1806 136.773 58.9618 136.304C59.7431 135.835 60.6664 135.601 61.7317 135.601C62.7971 135.601 63.7204 135.835 64.5016 136.304C65.2829 136.773 65.8865 137.431 66.3127 138.279C66.7436 139.126 66.959 140.113 66.959 141.24C66.959 142.367 66.7436 143.352 66.3127 144.195C65.8865 145.038 65.2829 145.693 64.5016 146.162C63.7204 146.631 62.7971 146.865 61.7317 146.865ZM61.7459 144.806C62.3236 144.806 62.8065 144.647 63.1948 144.33C63.583 144.008 63.8719 143.577 64.0613 143.037C64.2554 142.497 64.3525 141.896 64.3525 141.233C64.3525 140.566 64.2554 139.962 64.0613 139.422C63.8719 138.878 63.583 138.444 63.1948 138.122C62.8065 137.8 62.3236 137.639 61.7459 137.639C61.1541 137.639 60.6616 137.8 60.2686 138.122C59.8804 138.444 59.5892 138.878 59.3951 139.422C59.2057 139.962 59.111 140.566 59.111 141.233C59.111 141.896 59.2057 142.497 59.3951 143.037C59.5892 143.577 59.8804 144.008 60.2686 144.33C60.6616 144.647 61.1541 144.806 61.7459 144.806ZM71.7122 132.107V146.652H69.1412V132.107H71.7122ZM77.4952 146.872C76.8039 146.872 76.1813 146.749 75.6273 146.503C75.0781 146.252 74.6425 145.883 74.3205 145.395C74.0033 144.907 73.8446 144.306 73.8446 143.591C73.8446 142.976 73.9583 142.467 74.1856 142.064C74.4128 141.662 74.723 141.34 75.116 141.098C75.5089 140.857 75.9517 140.674 76.4441 140.551C76.9412 140.423 77.455 140.331 77.9853 140.274C78.6245 140.208 79.1429 140.149 79.5407 140.097C79.9384 140.04 80.2272 139.955 80.4071 139.841C80.5918 139.723 80.6841 139.54 80.6841 139.294V139.252C80.6841 138.717 80.5255 138.302 80.2083 138.009C79.891 137.715 79.4341 137.568 78.8375 137.568C78.2078 137.568 77.7083 137.706 77.339 137.98C76.9744 138.255 76.7282 138.579 76.6003 138.953L74.1998 138.612C74.3892 137.95 74.7017 137.396 75.1373 136.95C75.5729 136.501 76.1055 136.164 76.7353 135.942C77.365 135.715 78.061 135.601 78.8233 135.601C79.3489 135.601 79.8721 135.663 80.3929 135.786C80.9138 135.909 81.3896 136.112 81.8205 136.396C82.2514 136.676 82.597 137.057 82.8574 137.54C83.1226 138.023 83.2552 138.627 83.2552 139.351V146.652H80.7836V145.154H80.6983C80.5421 145.457 80.3219 145.741 80.0378 146.006C79.7585 146.266 79.4057 146.477 78.9796 146.638C78.5582 146.794 78.0634 146.872 77.4952 146.872ZM78.1628 144.983C78.6789 144.983 79.1264 144.881 79.5052 144.678C79.8839 144.469 80.1751 144.195 80.3787 143.854C80.5871 143.513 80.6912 143.141 80.6912 142.739V141.453C80.6107 141.52 80.4734 141.581 80.2793 141.638C80.0899 141.695 79.8768 141.744 79.6401 141.787C79.4034 141.83 79.169 141.868 78.937 141.901C78.705 141.934 78.5037 141.962 78.3333 141.986C77.9498 142.038 77.6065 142.123 77.3035 142.242C77.0004 142.36 76.7613 142.526 76.5861 142.739C76.4109 142.947 76.3233 143.217 76.3233 143.548C76.3233 144.022 76.4962 144.379 76.8418 144.621C77.1875 144.862 77.6278 144.983 78.1628 144.983ZM85.8404 146.652V135.743H88.3333V137.561H88.4469C88.6458 136.932 88.9867 136.446 89.4696 136.105C89.9573 135.76 90.5137 135.587 91.1387 135.587C91.2807 135.587 91.4393 135.594 91.6145 135.608C91.7945 135.618 91.9436 135.634 92.062 135.658V138.023C91.9531 137.985 91.7803 137.952 91.5435 137.923C91.3115 137.89 91.0866 137.874 90.8688 137.874C90.4 137.874 89.9786 137.976 89.6046 138.179C89.2353 138.378 88.9441 138.655 88.731 139.01C88.5179 139.365 88.4114 139.775 88.4114 140.239V146.652H85.8404Z" fill="#01001E"/>
</svg>
