<svg width="121" height="148" viewBox="0 0 121 148" fill="none" xmlns="http://www.w3.org/2000/svg">
<path d="M60.4785 2C87.8045 2.00011 109.957 24.1525 109.957 51.4785C109.957 78.8044 87.8044 100.956 60.4785 100.956C33.1525 100.956 11.0001 78.8045 11 51.4785C11 24.1524 33.1524 2 60.4785 2Z" stroke="#233469" stroke-width="4"/>
<path d="M29.5368 112.453C29.4705 111.833 29.1911 111.35 28.6987 111.004C28.211 110.659 27.5765 110.486 26.7953 110.486C26.246 110.486 25.7749 110.569 25.3819 110.734C24.9889 110.9 24.6883 111.125 24.4799 111.409C24.2716 111.693 24.1651 112.018 24.1603 112.382C24.1603 112.685 24.229 112.948 24.3663 113.17C24.5083 113.393 24.7001 113.582 24.9416 113.739C25.1831 113.89 25.4506 114.018 25.7441 114.122C26.0377 114.226 26.3336 114.314 26.6319 114.385L27.9956 114.726C28.5448 114.854 29.0727 115.027 29.5794 115.244C30.0907 115.462 30.5476 115.737 30.9501 116.068C31.3573 116.4 31.6793 116.8 31.916 117.268C32.1528 117.737 32.2711 118.286 32.2711 118.916C32.2711 119.768 32.0533 120.519 31.6177 121.168C31.1821 121.812 30.5524 122.316 29.7285 122.68C28.9094 123.04 27.9174 123.22 26.7527 123.22C25.621 123.22 24.6386 123.045 23.8052 122.695C22.9766 122.344 22.3279 121.833 21.8592 121.161C21.3952 120.488 21.1442 119.669 21.1064 118.703H23.6987C23.7366 119.21 23.8928 119.631 24.1674 119.967C24.4421 120.304 24.7995 120.554 25.2399 120.72C25.685 120.886 26.1821 120.969 26.7314 120.969C27.3043 120.969 27.8062 120.884 28.237 120.713C28.6726 120.538 29.0136 120.296 29.2598 119.989C29.506 119.676 29.6315 119.312 29.6362 118.895C29.6315 118.516 29.5202 118.204 29.3024 117.957C29.0846 117.706 28.7792 117.498 28.3862 117.332C27.9979 117.162 27.5434 117.01 27.0225 116.878L25.3677 116.452C24.1698 116.144 23.2228 115.678 22.5268 115.053C21.8355 114.423 21.4899 113.587 21.4899 112.545C21.4899 111.688 21.7219 110.938 22.1859 110.294C22.6547 109.65 23.2915 109.151 24.0964 108.795C24.9013 108.436 25.8128 108.256 26.8308 108.256C27.863 108.256 28.7673 108.436 29.5439 108.795C30.3251 109.151 30.9383 109.645 31.3833 110.28C31.8284 110.91 32.0581 111.634 32.0723 112.453H29.5368ZM39.954 112.091V114.08H33.6827V112.091H39.954ZM35.231 109.477H37.802V119.719C37.802 120.064 37.8541 120.33 37.9583 120.514C38.0672 120.694 38.2092 120.817 38.3844 120.884C38.5596 120.95 38.7537 120.983 38.9668 120.983C39.1278 120.983 39.2746 120.971 39.4071 120.947C39.5444 120.924 39.6486 120.902 39.7196 120.884L40.1529 122.893C40.0156 122.941 39.8191 122.993 39.5634 123.05C39.3124 123.107 39.0047 123.14 38.6401 123.149C37.9962 123.168 37.4161 123.071 36.9 122.858C36.3839 122.64 35.9744 122.304 35.6713 121.849C35.373 121.395 35.2263 120.827 35.231 120.145V109.477ZM42.1042 123V112.091H44.5971V113.909H44.7108C44.9096 113.279 45.2505 112.794 45.7335 112.453C46.2212 112.107 46.7775 111.935 47.4025 111.935C47.5446 111.935 47.7032 111.942 47.8784 111.956C48.0583 111.965 48.2074 111.982 48.3258 112.006V114.371C48.2169 114.333 48.0441 114.3 47.8074 114.271C47.5753 114.238 47.3504 114.222 47.1326 114.222C46.6639 114.222 46.2425 114.323 45.8684 114.527C45.4991 114.726 45.2079 115.003 44.9949 115.358C44.7818 115.713 44.6752 116.123 44.6752 116.587V123H42.1042ZM54.4142 123.213C53.3205 123.213 52.3759 122.986 51.5804 122.531C50.7897 122.072 50.1813 121.423 49.7551 120.585C49.329 119.742 49.1159 118.75 49.1159 117.609C49.1159 116.487 49.329 115.502 49.7551 114.655C50.186 113.803 50.7873 113.14 51.5591 112.666C52.3309 112.188 53.2376 111.949 54.2793 111.949C54.9516 111.949 55.5861 112.058 56.1827 112.276C56.784 112.489 57.3143 112.82 57.7736 113.27C58.2376 113.72 58.6022 114.293 58.8674 114.989C59.1325 115.68 59.2651 116.504 59.2651 117.46V118.249H50.3233V116.516H56.8006C56.7959 116.023 56.6893 115.585 56.481 115.202C56.2727 114.813 55.9815 114.508 55.6074 114.286C55.2381 114.063 54.8072 113.952 54.3148 113.952C53.7892 113.952 53.3276 114.08 52.9299 114.335C52.5321 114.586 52.222 114.918 51.9995 115.33C51.7817 115.737 51.6704 116.184 51.6657 116.672V118.185C51.6657 118.819 51.7817 119.364 52.0137 119.818C52.2457 120.268 52.57 120.614 52.9867 120.855C53.4033 121.092 53.891 121.21 54.4498 121.21C54.8238 121.21 55.1623 121.158 55.4654 121.054C55.7684 120.945 56.0312 120.786 56.2537 120.578C56.4763 120.37 56.6444 120.112 56.758 119.804L59.1586 120.074C59.007 120.708 58.7182 121.262 58.2921 121.736C57.8707 122.205 57.3309 122.569 56.6728 122.83C56.0146 123.085 55.2618 123.213 54.4142 123.213ZM61.4402 123V112.091H63.8975V113.945H64.0254C64.2527 113.32 64.6291 112.832 65.1547 112.482C65.6802 112.126 66.3076 111.949 67.0368 111.949C67.7754 111.949 68.398 112.129 68.9047 112.489C69.416 112.844 69.7759 113.329 69.9842 113.945H70.0978C70.3393 113.339 70.7465 112.856 71.3194 112.496C71.8971 112.131 72.5813 111.949 73.372 111.949C74.3758 111.949 75.1949 112.266 75.8294 112.901C76.4638 113.535 76.7811 114.461 76.7811 115.678V123H74.2029V116.075C74.2029 115.398 74.023 114.903 73.6632 114.591C73.3033 114.274 72.863 114.115 72.3422 114.115C71.7219 114.115 71.2366 114.309 70.8862 114.697C70.5405 115.081 70.3677 115.58 70.3677 116.196V123H67.8464V115.969C67.8464 115.405 67.676 114.955 67.335 114.619C66.9989 114.283 66.5585 114.115 66.014 114.115C65.6447 114.115 65.3085 114.21 65.0055 114.399C64.7025 114.584 64.461 114.847 64.2811 115.188C64.1011 115.524 64.0112 115.917 64.0112 116.366V123H61.4402ZM82.5286 123.22C81.8373 123.22 81.2147 123.097 80.6607 122.851C80.1114 122.6 79.6758 122.231 79.3539 121.743C79.0366 121.255 78.878 120.654 78.878 119.939C78.878 119.323 78.9917 118.814 79.2189 118.412C79.4462 118.009 79.7563 117.688 80.1493 117.446C80.5423 117.205 80.985 117.022 81.4775 116.899C81.9746 116.771 82.4883 116.679 83.0186 116.622C83.6578 116.556 84.1763 116.497 84.574 116.445C84.9718 116.388 85.2606 116.303 85.4405 116.189C85.6252 116.071 85.7175 115.888 85.7175 115.642V115.599C85.7175 115.064 85.5589 114.65 85.2417 114.357C84.9244 114.063 84.4675 113.916 83.8709 113.916C83.2412 113.916 82.7417 114.054 82.3723 114.328C82.0078 114.603 81.7615 114.927 81.6337 115.301L79.2331 114.96C79.4225 114.297 79.735 113.743 80.1706 113.298C80.6062 112.848 81.1389 112.512 81.7686 112.29C82.3984 112.062 83.0944 111.949 83.8567 111.949C84.3823 111.949 84.9055 112.01 85.4263 112.134C85.9471 112.257 86.423 112.46 86.8539 112.744C87.2847 113.024 87.6304 113.405 87.8908 113.888C88.156 114.371 88.2885 114.974 88.2885 115.699V123H85.8169V121.501H85.7317C85.5755 121.804 85.3553 122.089 85.0712 122.354C84.7918 122.614 84.4391 122.825 84.013 122.986C83.5916 123.142 83.0968 123.22 82.5286 123.22ZM83.1962 121.331C83.7123 121.331 84.1597 121.229 84.5385 121.026C84.9173 120.817 85.2085 120.543 85.4121 120.202C85.6204 119.861 85.7246 119.489 85.7246 119.087V117.801C85.6441 117.867 85.5068 117.929 85.3127 117.986C85.1233 118.043 84.9102 118.092 84.6735 118.135C84.4367 118.178 84.2024 118.215 83.9703 118.249C83.7383 118.282 83.5371 118.31 83.3667 118.334C82.9831 118.386 82.6399 118.471 82.3368 118.589C82.0338 118.708 81.7947 118.874 81.6195 119.087C81.4443 119.295 81.3567 119.565 81.3567 119.896C81.3567 120.37 81.5295 120.727 81.8752 120.969C82.2208 121.21 82.6612 121.331 83.1962 121.331ZM92.976 112.091L95.1777 116.118L97.415 112.091H100.135L96.8468 117.545L100.192 123H97.486L95.1777 119.072L92.8908 123H90.1635L93.4874 117.545L90.2488 112.091H92.976ZM2.51083 147V132.455H11.9711V134.663H5.14577V138.612H11.481V140.821H5.14577V144.791H12.0279V147H2.51083ZM16.6479 136.091L18.8496 140.118L21.0868 136.091H23.807L20.5186 141.545L23.8638 147H21.1578L18.8496 143.072L16.5627 147H13.8354L17.1593 141.545L13.9206 136.091H16.6479ZM28.8958 147.22C28.2045 147.22 27.5819 147.097 27.0279 146.851C26.4786 146.6 26.043 146.231 25.7211 145.743C25.4038 145.255 25.2452 144.654 25.2452 143.939C25.2452 143.323 25.3588 142.814 25.5861 142.412C25.8134 142.009 26.1235 141.688 26.5165 141.446C26.9095 141.205 27.3522 141.022 27.8446 140.899C28.3418 140.771 28.8555 140.679 29.3858 140.622C30.025 140.556 30.5435 140.497 30.9412 140.445C31.339 140.388 31.6278 140.303 31.8077 140.189C31.9924 140.071 32.0847 139.888 32.0847 139.642V139.599C32.0847 139.064 31.9261 138.65 31.6088 138.357C31.2916 138.063 30.8347 137.916 30.2381 137.916C29.6084 137.916 29.1088 138.054 28.7395 138.328C28.3749 138.603 28.1287 138.927 28.0009 139.301L25.6003 138.96C25.7897 138.297 26.1022 137.743 26.5378 137.298C26.9734 136.848 27.5061 136.512 28.1358 136.29C28.7656 136.062 29.4616 135.949 30.2239 135.949C30.7495 135.949 31.2727 136.01 31.7935 136.134C32.3143 136.257 32.7902 136.46 33.2211 136.744C33.6519 137.024 33.9976 137.405 34.258 137.888C34.5231 138.371 34.6557 138.974 34.6557 139.699V147H32.1841V145.501H32.0989C31.9426 145.804 31.7225 146.089 31.4384 146.354C31.159 146.614 30.8063 146.825 30.3801 146.986C29.9587 147.142 29.464 147.22 28.8958 147.22ZM29.5634 145.331C30.0795 145.331 30.5269 145.229 30.9057 145.026C31.2845 144.817 31.5757 144.543 31.7793 144.202C31.9876 143.861 32.0918 143.489 32.0918 143.087V141.801C32.0113 141.867 31.874 141.929 31.6799 141.986C31.4905 142.043 31.2774 142.092 31.0407 142.135C30.8039 142.178 30.5695 142.215 30.3375 142.249C30.1055 142.282 29.9043 142.31 29.7338 142.334C29.3503 142.386 29.007 142.471 28.704 142.589C28.401 142.708 28.1619 142.874 27.9867 143.087C27.8115 143.295 27.7239 143.565 27.7239 143.896C27.7239 144.37 27.8967 144.727 28.2424 144.969C28.588 145.21 29.0284 145.331 29.5634 145.331ZM37.2409 147V136.091H39.6983V137.945H39.8262C40.0534 137.32 40.4299 136.832 40.9554 136.482C41.481 136.126 42.1084 135.949 42.8375 135.949C43.5762 135.949 44.1988 136.129 44.7054 136.489C45.2168 136.844 45.5766 137.329 45.785 137.945H45.8986C46.1401 137.339 46.5473 136.856 47.1202 136.496C47.6979 136.131 48.382 135.949 49.1728 135.949C50.1766 135.949 50.9957 136.266 51.6301 136.901C52.2646 137.535 52.5819 138.461 52.5819 139.678V147H50.0037V140.075C50.0037 139.398 49.8238 138.903 49.464 138.591C49.1041 138.274 48.6638 138.115 48.1429 138.115C47.5227 138.115 47.0373 138.309 46.687 138.697C46.3413 139.081 46.1685 139.58 46.1685 140.196V147H43.6472V139.969C43.6472 139.405 43.4767 138.955 43.1358 138.619C42.7997 138.283 42.3593 138.115 41.8148 138.115C41.4455 138.115 41.1093 138.21 40.8063 138.399C40.5033 138.584 40.2618 138.847 40.0819 139.188C39.9019 139.524 39.812 139.917 39.812 140.366V147H37.2409ZM55.1902 147V136.091H57.7612V147H55.1902ZM56.4828 134.543C56.0756 134.543 55.7252 134.408 55.4316 134.138C55.1381 133.863 54.9913 133.534 54.9913 133.151C54.9913 132.762 55.1381 132.433 55.4316 132.163C55.7252 131.889 56.0756 131.751 56.4828 131.751C56.8947 131.751 57.2451 131.889 57.5339 132.163C57.8275 132.433 57.9743 132.762 57.9743 133.151C57.9743 133.534 57.8275 133.863 57.5339 134.138C57.2451 134.408 56.8947 134.543 56.4828 134.543ZM62.976 140.608V147H60.405V136.091H62.8624V137.945H62.9902C63.2412 137.334 63.6413 136.848 64.1905 136.489C64.7445 136.129 65.4287 135.949 66.2431 135.949C66.9959 135.949 67.6517 136.11 68.2104 136.432C68.7739 136.754 69.2095 137.22 69.5172 137.831C69.8297 138.442 69.9836 139.183 69.9789 140.054V147H67.4078V140.452C67.4078 139.723 67.2185 139.152 66.8397 138.74C66.4656 138.328 65.9471 138.122 65.2843 138.122C64.8345 138.122 64.4344 138.222 64.084 138.42C63.7383 138.615 63.4661 138.896 63.2672 139.266C63.0731 139.635 62.976 140.082 62.976 140.608ZM75.7317 147.22C75.0404 147.22 74.4178 147.097 73.8638 146.851C73.3146 146.6 72.879 146.231 72.557 145.743C72.2398 145.255 72.0811 144.654 72.0811 143.939C72.0811 143.323 72.1948 142.814 72.4221 142.412C72.6493 142.009 72.9595 141.688 73.3525 141.446C73.7454 141.205 74.1882 141.022 74.6806 140.899C75.1777 140.771 75.6915 140.679 76.2218 140.622C76.861 140.556 77.3794 140.497 77.7772 140.445C78.1749 140.388 78.4637 140.303 78.6436 140.189C78.8283 140.071 78.9206 139.888 78.9206 139.642V139.599C78.9206 139.064 78.762 138.65 78.4448 138.357C78.1275 138.063 77.6706 137.916 77.074 137.916C76.4443 137.916 75.9448 138.054 75.5755 138.328C75.2109 138.603 74.9647 138.927 74.8368 139.301L72.4363 138.96C72.6257 138.297 72.9382 137.743 73.3738 137.298C73.8094 136.848 74.342 136.512 74.9718 136.29C75.6015 136.062 76.2975 135.949 77.0598 135.949C77.5854 135.949 78.1086 136.01 78.6294 136.134C79.1503 136.257 79.6261 136.46 80.057 136.744C80.4879 137.024 80.8335 137.405 81.0939 137.888C81.3591 138.371 81.4917 138.974 81.4917 139.699V147H79.0201V145.501H78.9348C78.7786 145.804 78.5584 146.089 78.2743 146.354C77.995 146.614 77.6422 146.825 77.2161 146.986C76.7947 147.142 76.2999 147.22 75.7317 147.22ZM76.3993 145.331C76.9154 145.331 77.3629 145.229 77.7417 145.026C78.1204 144.817 78.4116 144.543 78.6152 144.202C78.8236 143.861 78.9277 143.489 78.9277 143.087V141.801C78.8472 141.867 78.7099 141.929 78.5158 141.986C78.3264 142.043 78.1133 142.092 77.8766 142.135C77.6399 142.178 77.4055 142.215 77.1735 142.249C76.9415 142.282 76.7402 142.31 76.5698 142.334C76.1863 142.386 75.843 142.471 75.54 142.589C75.2369 142.708 74.9978 142.874 74.8226 143.087C74.6474 143.295 74.5598 143.565 74.5598 143.896C74.5598 144.37 74.7327 144.727 75.0783 144.969C75.4239 145.21 75.8643 145.331 76.3993 145.331ZM89.5243 136.091V138.08H83.253V136.091H89.5243ZM84.8013 133.477H87.3723V143.719C87.3723 144.064 87.4244 144.33 87.5286 144.514C87.6375 144.694 87.7795 144.817 87.9547 144.884C88.1299 144.95 88.324 144.983 88.5371 144.983C88.6981 144.983 88.8449 144.971 88.9775 144.947C89.1148 144.924 89.2189 144.902 89.29 144.884L89.7232 146.893C89.5859 146.941 89.3894 146.993 89.1337 147.05C88.8828 147.107 88.575 147.14 88.2104 147.149C87.5665 147.168 86.9864 147.071 86.4703 146.858C85.9542 146.64 85.5447 146.304 85.2417 145.849C84.9434 145.395 84.7966 144.827 84.8013 144.145V133.477ZM91.6745 147V136.091H94.2456V147H91.6745ZM92.9672 134.543C92.56 134.543 92.2096 134.408 91.916 134.138C91.6225 133.863 91.4757 133.534 91.4757 133.151C91.4757 132.762 91.6225 132.433 91.916 132.163C92.2096 131.889 92.56 131.751 92.9672 131.751C93.3791 131.751 93.7295 131.889 94.0183 132.163C94.3118 132.433 94.4586 132.762 94.4586 133.151C94.4586 133.534 94.3118 133.863 94.0183 134.138C93.7295 134.408 93.3791 134.543 92.9672 134.543ZM101.648 147.213C100.583 147.213 99.6593 146.979 98.878 146.51C98.0968 146.041 97.4907 145.385 97.0598 144.543C96.6337 143.7 96.4206 142.715 96.4206 141.588C96.4206 140.461 96.6337 139.474 97.0598 138.626C97.4907 137.779 98.0968 137.121 98.878 136.652C99.6593 136.183 100.583 135.949 101.648 135.949C102.713 135.949 103.637 136.183 104.418 136.652C105.199 137.121 105.803 137.779 106.229 138.626C106.66 139.474 106.875 140.461 106.875 141.588C106.875 142.715 106.66 143.7 106.229 144.543C105.803 145.385 105.199 146.041 104.418 146.51C103.637 146.979 102.713 147.213 101.648 147.213ZM101.662 145.153C102.24 145.153 102.723 144.995 103.111 144.678C103.499 144.356 103.788 143.925 103.977 143.385C104.172 142.845 104.269 142.244 104.269 141.581C104.269 140.913 104.172 140.31 103.977 139.77C103.788 139.225 103.499 138.792 103.111 138.47C102.723 138.148 102.24 137.987 101.662 137.987C101.07 137.987 100.578 138.148 100.185 138.47C99.7966 138.792 99.5054 139.225 99.3113 139.77C99.1219 140.31 99.0272 140.913 99.0272 141.581C99.0272 142.244 99.1219 142.845 99.3113 143.385C99.5054 143.925 99.7966 144.356 100.185 144.678C100.578 144.995 101.07 145.153 101.662 145.153ZM111.628 140.608V147H109.057V136.091H111.515V137.945H111.643C111.894 137.334 112.294 136.848 112.843 136.489C113.397 136.129 114.081 135.949 114.895 135.949C115.648 135.949 116.304 136.11 116.863 136.432C117.426 136.754 117.862 137.22 118.17 137.831C118.482 138.442 118.636 139.183 118.631 140.054V147H116.06V140.452C116.06 139.723 115.871 139.152 115.492 138.74C115.118 138.328 114.599 138.122 113.937 138.122C113.487 138.122 113.087 138.222 112.736 138.42C112.391 138.615 112.118 138.896 111.92 139.266C111.725 139.635 111.628 140.082 111.628 140.608Z" fill="#01001E"/>
<path fill-rule="evenodd" clip-rule="evenodd" d="M84.9276 31.5361C83.6515 31.5361 82.4277 32.0492 81.5253 32.9624C80.623 33.8756 80.116 35.1142 80.116 36.4057V39.6521H89.7392V36.4057C89.7392 35.1142 89.2323 33.8756 88.3299 32.9624C87.4276 32.0492 86.2037 31.5361 84.9276 31.5361ZM89.7392 42.8984H80.116V69.681L84.9276 76.9854L89.7392 69.681V42.8984ZM32 25.0434V73.739C32 75.0305 32.5069 76.2691 33.4093 77.1823C34.3116 78.0955 35.5355 78.6085 36.8116 78.6085H72.0967C73.3728 78.6085 74.5966 78.0955 75.499 77.1823C76.4013 76.2691 76.9083 75.0305 76.9083 73.739V25.0434C76.9083 23.7519 76.4013 22.5133 75.499 21.6001C74.5966 20.6869 73.3728 20.1738 72.0967 20.1738H36.8116C35.5355 20.1738 34.3116 20.6869 33.4093 21.6001C32.5069 22.5133 32 23.7519 32 25.0434ZM54.4541 34.7825C54.4541 34.352 54.6231 33.9392 54.9239 33.6347C55.2247 33.3303 55.6326 33.1593 56.058 33.1593H68.8889C69.3143 33.1593 69.7223 33.3303 70.0231 33.6347C70.3238 33.9392 70.4928 34.352 70.4928 34.7825C70.4928 35.213 70.3238 35.6259 70.0231 35.9303C69.7223 36.2347 69.3143 36.4057 68.8889 36.4057H56.058C55.6326 36.4057 55.2247 36.2347 54.9239 35.9303C54.6231 35.6259 54.4541 35.213 54.4541 34.7825ZM56.058 39.6521C55.6326 39.6521 55.2247 39.8231 54.9239 40.1275C54.6231 40.4319 54.4541 40.8448 54.4541 41.2753C54.4541 41.7058 54.6231 42.1186 54.9239 42.423C55.2247 42.7274 55.6326 42.8984 56.058 42.8984H68.8889C69.3143 42.8984 69.7223 42.7274 70.0231 42.423C70.3238 42.1186 70.4928 41.7058 70.4928 41.2753C70.4928 40.8448 70.3238 40.4319 70.0231 40.1275C69.7223 39.8231 69.3143 39.6521 68.8889 39.6521H56.058ZM54.4541 55.8839C54.4541 55.4534 54.6231 55.0406 54.9239 54.7362C55.2247 54.4318 55.6326 54.2607 56.058 54.2607H68.8889C69.3143 54.2607 69.7223 54.4318 70.0231 54.7362C70.3238 55.0406 70.4928 55.4534 70.4928 55.8839C70.4928 56.3144 70.3238 56.7273 70.0231 57.0317C69.7223 57.3361 69.3143 57.5071 68.8889 57.5071H56.058C55.6326 57.5071 55.2247 57.3361 54.9239 57.0317C54.6231 56.7273 54.4541 56.3144 54.4541 55.8839ZM56.058 60.7535C55.6326 60.7535 55.2247 60.9245 54.9239 61.2289C54.6231 61.5333 54.4541 61.9462 54.4541 62.3767C54.4541 62.8072 54.6231 63.22 54.9239 63.5244C55.2247 63.8289 55.6326 63.9999 56.058 63.9999H68.8889C69.3143 63.9999 69.7223 63.8289 70.0231 63.5244C70.3238 63.22 70.4928 62.8072 70.4928 62.3767C70.4928 61.9462 70.3238 61.5333 70.0231 61.2289C69.7223 60.9245 69.3143 60.7535 68.8889 60.7535H56.058ZM41.6232 55.8839V60.7535H46.4348V55.8839H41.6232ZM40.0193 52.6376H48.0387C48.464 52.6376 48.872 52.8086 49.1728 53.113C49.4736 53.4174 49.6425 53.8303 49.6425 54.2607V62.3767C49.6425 62.8072 49.4736 63.22 49.1728 63.5244C48.872 63.8289 48.464 63.9999 48.0387 63.9999H40.0193C39.594 63.9999 39.186 63.8289 38.8852 63.5244C38.5844 63.22 38.4155 62.8072 38.4155 62.3767V54.2607C38.4155 53.8303 38.5844 53.4174 38.8852 53.113C39.186 52.8086 39.594 52.6376 40.0193 52.6376ZM50.7765 35.9301C51.0686 35.624 51.2303 35.2139 51.2266 34.7884C51.223 34.3628 51.0543 33.9556 50.7569 33.6547C50.4596 33.3537 50.0573 33.183 49.6368 33.1793C49.2162 33.1756 48.8111 33.3392 48.5086 33.6349L43.2271 38.9801L41.1533 36.8813C40.8508 36.5856 40.4456 36.422 40.0251 36.4257C39.6046 36.4294 39.2023 36.6001 38.9049 36.9011C38.6076 37.202 38.4389 37.6091 38.4352 38.0347C38.4316 38.4603 38.5932 38.8703 38.8854 39.1765L43.2271 43.5704L50.7765 35.9301Z" fill="#233469"/>
<g clip-path="url(#clip0_94_603)">
<path fill-rule="evenodd" clip-rule="evenodd" d="M72.1256 62.0205C71.046 62.0049 69.9741 62.2108 68.9723 62.6261C67.9705 63.0414 67.0587 63.6579 66.2899 64.4397C65.5211 65.2215 64.9106 66.1531 64.4939 67.1803C64.0772 68.2076 63.8627 69.3099 63.8627 70.4234C63.8627 71.5369 64.0772 72.6392 64.4939 73.6665C64.9106 74.6937 65.5211 75.6253 66.2899 76.4071C67.0587 77.1889 67.9705 77.8054 68.9723 78.2207C69.9741 78.636 71.046 78.8419 72.1256 78.8263C74.2869 78.8263 76.3596 77.9409 77.8879 76.3649C79.4161 74.7889 80.2747 72.6514 80.2747 70.4226C80.2747 68.1938 79.4161 66.0563 77.8879 64.4803C76.3596 62.9042 74.2869 62.0205 72.1256 62.0205ZM72.4484 65.9936L73.5344 68.2466C73.558 68.3039 73.5961 68.3535 73.6449 68.3901C73.6936 68.4268 73.751 68.4492 73.8111 68.4549L76.2216 68.832C76.2906 68.8411 76.3557 68.8703 76.4092 68.9163C76.4627 68.9622 76.5024 69.0229 76.5236 69.0912C76.5448 69.1596 76.5466 69.2327 76.5289 69.3021C76.5112 69.3715 76.4746 69.4343 76.4235 69.483L74.6459 71.2277C74.6191 71.2797 74.6051 71.3377 74.6051 71.3966C74.6051 71.4555 74.6191 71.5135 74.6459 71.5655L74.9861 74.0382C75.0004 74.1094 74.9945 74.1834 74.969 74.2512C74.9435 74.319 74.8995 74.3777 74.8424 74.4203C74.7853 74.463 74.7174 74.4877 74.647 74.4914C74.5766 74.4952 74.5066 74.4779 74.4455 74.4416L72.2989 73.2708C72.2432 73.2448 72.1828 73.2313 72.1216 73.2313C72.0605 73.2313 72 73.2448 71.9443 73.2708L69.7977 74.4416C69.7366 74.4779 69.6667 74.4952 69.5962 74.4914C69.5258 74.4877 69.458 74.463 69.4008 74.4203C69.3437 74.3777 69.2997 74.319 69.2742 74.2512C69.2487 74.1834 69.2428 74.1094 69.2571 74.0382L69.6594 71.5655C69.6769 71.5082 69.6803 71.4473 69.6692 71.3883C69.6581 71.3293 69.6328 71.2741 69.5958 71.2277L67.8165 69.4699C67.7687 69.4207 67.7351 69.3588 67.7193 69.2911C67.7035 69.2233 67.7063 69.1524 67.7272 69.0862C67.7481 69.02 67.7864 68.961 67.8378 68.9159C67.8892 68.8707 67.9517 68.8411 68.0185 68.8304L70.4306 68.468C70.4906 68.4623 70.5481 68.4399 70.5968 68.4032C70.6455 68.3666 70.6837 68.317 70.7073 68.2598L71.7933 66.0067C71.8222 65.9428 71.8679 65.8885 71.9252 65.85C71.9826 65.8115 72.0492 65.7904 72.1177 65.789C72.1861 65.7877 72.2535 65.8061 72.3122 65.8423C72.371 65.8784 72.4187 65.9309 72.45 65.9936H72.4484ZM80.5577 76.2224C79.1857 78.3386 77.1146 79.8683 74.7301 80.5267L76.9753 84.5376C77.0538 84.678 77.171 84.7913 77.312 84.8631C77.4529 84.9349 77.6114 84.962 77.7673 84.9409C77.9232 84.9198 78.0695 84.8516 78.1878 84.7448C78.3061 84.6379 78.391 84.4974 78.4318 84.3408L79.2427 81.2269L82.2607 82.0615C82.4125 82.1033 82.573 82.0978 82.7218 82.0456C82.8706 81.9934 83.001 81.8969 83.0966 81.7682C83.1923 81.6396 83.2488 81.4847 83.259 81.3229C83.2693 81.1612 83.2328 81 83.1543 80.8596L80.5577 76.2224ZM69.529 80.5284C67.1431 79.8751 65.07 78.3471 63.6982 76.2306L61.1064 80.8596C61.0279 81 60.9914 81.1612 61.0017 81.3229C61.012 81.4847 61.0685 81.6396 61.1641 81.7682C61.2597 81.8969 61.3902 81.9934 61.539 82.0456C61.6878 82.0978 61.8482 82.1033 62 82.0615L65.0196 81.2269L65.8289 84.3408C65.8697 84.4974 65.9547 84.6379 66.0729 84.7448C66.1912 84.8516 66.3376 84.9198 66.4934 84.9409C66.6493 84.962 66.8078 84.9349 66.9488 84.8631C67.0897 84.7913 67.2069 84.678 67.2854 84.5376L69.529 80.5284Z" fill="#FBB143"/>
</g>
<defs>
<clipPath id="clip0_94_603">
<rect width="22.2609" height="22.9565" fill="white" transform="translate(61 62)"/>
</clipPath>
</defs>
</svg>
