<svg width="147" height="148" viewBox="0 0 147 148" fill="none" xmlns="http://www.w3.org/2000/svg">
<path d="M73.4785 2C100.804 2.00018 122.956 24.1525 122.956 51.4785C122.956 78.8044 100.804 100.956 73.4785 100.956C46.1526 100.956 24.0001 78.8045 24 51.4785C24 24.1524 46.1525 2 73.4785 2Z" stroke="#233469" stroke-width="4"/>
<path d="M14.5582 112.453C14.492 111.833 14.2126 111.35 13.7202 111.004C13.2325 110.659 12.598 110.486 11.8168 110.486C11.2675 110.486 10.7964 110.569 10.4034 110.734C10.0104 110.9 9.70975 111.125 9.50142 111.409C9.29309 111.693 9.18655 112.018 9.18182 112.382C9.18182 112.685 9.25047 112.948 9.38778 113.17C9.52983 113.393 9.72159 113.582 9.96307 113.739C10.2045 113.89 10.4721 114.018 10.7656 114.122C11.0592 114.226 11.3551 114.314 11.6534 114.385L13.017 114.726C13.5663 114.854 14.0942 115.027 14.6009 115.244C15.1122 115.462 15.5691 115.737 15.9716 116.068C16.3788 116.4 16.7008 116.8 16.9375 117.268C17.1742 117.737 17.2926 118.286 17.2926 118.916C17.2926 119.768 17.0748 120.519 16.6392 121.168C16.2036 121.812 15.5739 122.316 14.75 122.68C13.9309 123.04 12.9389 123.22 11.7741 123.22C10.6425 123.22 9.66004 123.045 8.8267 122.695C7.99811 122.344 7.34943 121.833 6.88068 121.161C6.41667 120.488 6.16572 119.669 6.12784 118.703H8.72017C8.75805 119.21 8.9143 119.631 9.18892 119.967C9.46354 120.304 9.82102 120.554 10.2614 120.72C10.7064 120.886 11.2036 120.969 11.7528 120.969C12.3258 120.969 12.8277 120.884 13.2585 120.713C13.6941 120.538 14.035 120.296 14.2812 119.989C14.5275 119.676 14.6529 119.312 14.6577 118.895C14.6529 118.516 14.5417 118.204 14.3239 117.957C14.1061 117.706 13.8007 117.498 13.4077 117.332C13.0194 117.162 12.5649 117.01 12.044 116.878L10.3892 116.452C9.19129 116.144 8.24432 115.678 7.5483 115.053C6.85701 114.423 6.51136 113.587 6.51136 112.545C6.51136 111.688 6.74337 110.938 7.20739 110.294C7.67614 109.65 8.31297 109.151 9.1179 108.795C9.92282 108.436 10.8343 108.256 11.8523 108.256C12.8845 108.256 13.7888 108.436 14.5653 108.795C15.3466 109.151 15.9598 109.645 16.4048 110.28C16.8499 110.91 17.0795 111.634 17.0938 112.453H14.5582ZM24.9755 112.091V114.08H18.7042V112.091H24.9755ZM20.2525 109.477H22.8235V119.719C22.8235 120.064 22.8756 120.33 22.9798 120.514C23.0887 120.694 23.2307 120.817 23.4059 120.884C23.5811 120.95 23.7752 120.983 23.9883 120.983C24.1493 120.983 24.296 120.971 24.4286 120.947C24.5659 120.924 24.6701 120.902 24.7411 120.884L25.1744 122.893C25.0371 122.941 24.8406 122.993 24.5849 123.05C24.3339 123.107 24.0262 123.14 23.6616 123.149C23.0176 123.168 22.4376 123.071 21.9215 122.858C21.4054 122.64 20.9959 122.304 20.6928 121.849C20.3945 121.395 20.2478 120.827 20.2525 120.145V109.477ZM27.1257 123V112.091H29.6186V113.909H29.7322C29.9311 113.279 30.272 112.794 30.755 112.453C31.2427 112.107 31.799 111.935 32.424 111.935C32.5661 111.935 32.7247 111.942 32.8999 111.956C33.0798 111.965 33.2289 111.982 33.3473 112.006V114.371C33.2384 114.333 33.0656 114.3 32.8288 114.271C32.5968 114.238 32.3719 114.222 32.1541 114.222C31.6854 114.222 31.264 114.323 30.8899 114.527C30.5206 114.726 30.2294 115.003 30.0163 115.358C29.8033 115.713 29.6967 116.123 29.6967 116.587V123H27.1257ZM39.4357 123.213C38.342 123.213 37.3974 122.986 36.6019 122.531C35.8112 122.072 35.2028 121.423 34.7766 120.585C34.3505 119.742 34.1374 118.75 34.1374 117.609C34.1374 116.487 34.3505 115.502 34.7766 114.655C35.2075 113.803 35.8088 113.14 36.5806 112.666C37.3524 112.188 38.2591 111.949 39.3008 111.949C39.9731 111.949 40.6076 112.058 41.2042 112.276C41.8055 112.489 42.3358 112.82 42.7951 113.27C43.2591 113.72 43.6237 114.293 43.8888 114.989C44.154 115.68 44.2866 116.504 44.2866 117.46V118.249H35.3448V116.516H41.8221C41.8174 116.023 41.7108 115.585 41.5025 115.202C41.2942 114.813 41.003 114.508 40.6289 114.286C40.2596 114.063 39.8287 113.952 39.3363 113.952C38.8107 113.952 38.3491 114.08 37.9513 114.335C37.5536 114.586 37.2435 114.918 37.021 115.33C36.8031 115.737 36.6919 116.184 36.6871 116.672V118.185C36.6871 118.819 36.8031 119.364 37.0352 119.818C37.2672 120.268 37.5915 120.614 38.0082 120.855C38.4248 121.092 38.9125 121.21 39.4712 121.21C39.8453 121.21 40.1838 121.158 40.4869 121.054C40.7899 120.945 41.0527 120.786 41.2752 120.578C41.4978 120.37 41.6658 120.112 41.7795 119.804L44.18 120.074C44.0285 120.708 43.7397 121.262 43.3136 121.736C42.8922 122.205 42.3524 122.569 41.6942 122.83C41.0361 123.085 40.2833 123.213 39.4357 123.213ZM46.4616 123V112.091H48.919V113.945H49.0469C49.2741 113.32 49.6506 112.832 50.1761 112.482C50.7017 112.126 51.3291 111.949 52.0582 111.949C52.7969 111.949 53.4195 112.129 53.9261 112.489C54.4375 112.844 54.7973 113.329 55.0057 113.945H55.1193C55.3608 113.339 55.768 112.856 56.3409 112.496C56.9186 112.131 57.6027 111.949 58.3935 111.949C59.3973 111.949 60.2164 112.266 60.8509 112.901C61.4853 113.535 61.8026 114.461 61.8026 115.678V123H59.2244V116.075C59.2244 115.398 59.0445 114.903 58.6847 114.591C58.3248 114.274 57.8845 114.115 57.3636 114.115C56.7434 114.115 56.258 114.309 55.9077 114.697C55.562 115.081 55.3892 115.58 55.3892 116.196V123H52.8679V115.969C52.8679 115.405 52.6974 114.955 52.3565 114.619C52.0204 114.283 51.58 114.115 51.0355 114.115C50.6662 114.115 50.33 114.21 50.027 114.399C49.724 114.584 49.4825 114.847 49.3026 115.188C49.1226 115.524 49.0327 115.917 49.0327 116.366V123H46.4616ZM67.5501 123.22C66.8588 123.22 66.2362 123.097 65.6822 122.851C65.1329 122.6 64.6973 122.231 64.3754 121.743C64.0581 121.255 63.8995 120.654 63.8995 119.939C63.8995 119.323 64.0131 118.814 64.2404 118.412C64.4677 118.009 64.7778 117.688 65.1708 117.446C65.5638 117.205 66.0065 117.022 66.4989 116.899C66.9961 116.771 67.5098 116.679 68.0401 116.622C68.6793 116.556 69.1978 116.497 69.5955 116.445C69.9933 116.388 70.2821 116.303 70.462 116.189C70.6467 116.071 70.739 115.888 70.739 115.642V115.599C70.739 115.064 70.5804 114.65 70.2631 114.357C69.9459 114.063 69.489 113.916 68.8924 113.916C68.2627 113.916 67.7631 114.054 67.3938 114.328C67.0292 114.603 66.783 114.927 66.6552 115.301L64.2546 114.96C64.444 114.297 64.7565 113.743 65.1921 113.298C65.6277 112.848 66.1604 112.512 66.7901 112.29C67.4199 112.062 68.1159 111.949 68.8782 111.949C69.4038 111.949 69.927 112.01 70.4478 112.134C70.9686 112.257 71.4445 112.46 71.8754 112.744C72.3062 113.024 72.6519 113.405 72.9123 113.888C73.1774 114.371 73.31 114.974 73.31 115.699V123H70.8384V121.501H70.7532C70.5969 121.804 70.3768 122.089 70.0927 122.354C69.8133 122.614 69.4606 122.825 69.0344 122.986C68.613 123.142 68.1183 123.22 67.5501 123.22ZM68.2177 121.331C68.7338 121.331 69.1812 121.229 69.56 121.026C69.9388 120.817 70.23 120.543 70.4336 120.202C70.6419 119.861 70.7461 119.489 70.7461 119.087V117.801C70.6656 117.867 70.5283 117.929 70.3342 117.986C70.1448 118.043 69.9317 118.092 69.695 118.135C69.4582 118.178 69.2238 118.215 68.9918 118.249C68.7598 118.282 68.5586 118.31 68.3881 118.334C68.0046 118.386 67.6613 118.471 67.3583 118.589C67.0553 118.708 66.8162 118.874 66.641 119.087C66.4658 119.295 66.3782 119.565 66.3782 119.896C66.3782 120.37 66.551 120.727 66.8967 120.969C67.2423 121.21 67.6826 121.331 68.2177 121.331ZM77.9975 112.091L80.1992 116.118L82.4364 112.091H85.1566L81.8683 117.545L85.2134 123H82.5075L80.1992 119.072L77.9123 123H75.185L78.5089 117.545L75.2702 112.091H77.9975ZM100.125 112.453C100.058 111.833 99.779 111.35 99.2866 111.004C98.7989 110.659 98.1644 110.486 97.3832 110.486C96.8339 110.486 96.3628 110.569 95.9698 110.734C95.5768 110.9 95.2762 111.125 95.0678 111.409C94.8595 111.693 94.753 112.018 94.7482 112.382C94.7482 112.685 94.8169 112.948 94.9542 113.17C95.0962 113.393 95.288 113.582 95.5295 113.739C95.771 113.89 96.0385 114.018 96.332 114.122C96.6256 114.226 96.9215 114.314 97.2198 114.385L98.5835 114.726C99.1327 114.854 99.6606 115.027 100.167 115.244C100.679 115.462 101.136 115.737 101.538 116.068C101.945 116.4 102.267 116.8 102.504 117.268C102.741 117.737 102.859 118.286 102.859 118.916C102.859 119.768 102.641 120.519 102.206 121.168C101.77 121.812 101.14 122.316 100.316 122.68C99.4973 123.04 98.5053 123.22 97.3406 123.22C96.2089 123.22 95.2264 123.045 94.3931 122.695C93.5645 122.344 92.9158 121.833 92.4471 121.161C91.9831 120.488 91.7321 119.669 91.6942 118.703H94.2866C94.3245 119.21 94.4807 119.631 94.7553 119.967C95.0299 120.304 95.3874 120.554 95.8278 120.72C96.2728 120.886 96.77 120.969 97.3192 120.969C97.8922 120.969 98.3941 120.884 98.8249 120.713C99.2605 120.538 99.6014 120.296 99.8477 119.989C100.094 119.676 100.219 119.312 100.224 118.895C100.219 118.516 100.108 118.204 99.8903 117.957C99.6725 117.706 99.3671 117.498 98.9741 117.332C98.5858 117.162 98.1313 117.01 97.6104 116.878L95.9556 116.452C94.7577 116.144 93.8107 115.678 93.1147 115.053C92.4234 114.423 92.0778 113.587 92.0778 112.545C92.0778 111.688 92.3098 110.938 92.7738 110.294C93.2425 109.65 93.8794 109.151 94.6843 108.795C95.4892 108.436 96.4007 108.256 97.4187 108.256C98.4509 108.256 99.3552 108.436 100.132 108.795C100.913 109.151 101.526 109.645 101.971 110.28C102.416 110.91 102.646 111.634 102.66 112.453H100.125ZM107.438 119.577L107.431 116.473H107.843L111.763 112.091H114.768L109.945 117.46H109.413L107.438 119.577ZM105.094 123V108.455H107.665V123H105.094ZM111.941 123L108.39 118.036L110.123 116.224L115.016 123H111.941ZM116.481 123V112.091H119.052V123H116.481ZM117.774 110.543C117.367 110.543 117.016 110.408 116.723 110.138C116.429 109.863 116.282 109.534 116.282 109.151C116.282 108.762 116.429 108.433 116.723 108.163C117.016 107.889 117.367 107.751 117.774 107.751C118.186 107.751 118.536 107.889 118.825 108.163C119.118 108.433 119.265 108.762 119.265 109.151C119.265 109.534 119.118 109.863 118.825 110.138C118.536 110.408 118.186 110.543 117.774 110.543ZM124.267 108.455V123H121.696V108.455H124.267ZM129.482 108.455V123H126.911V108.455H129.482ZM140.748 114.974L138.404 115.23C138.338 114.993 138.222 114.771 138.056 114.562C137.895 114.354 137.677 114.186 137.403 114.058C137.128 113.93 136.792 113.866 136.394 113.866C135.859 113.866 135.409 113.982 135.045 114.214C134.685 114.446 134.507 114.747 134.512 115.116C134.507 115.434 134.623 115.692 134.86 115.891C135.102 116.089 135.499 116.253 136.053 116.381L137.914 116.778C138.946 117.001 139.713 117.354 140.215 117.837C140.722 118.32 140.978 118.952 140.982 119.733C140.978 120.42 140.776 121.026 140.379 121.551C139.986 122.072 139.439 122.479 138.738 122.773C138.037 123.066 137.232 123.213 136.323 123.213C134.988 123.213 133.913 122.934 133.099 122.375C132.284 121.812 131.799 121.028 131.643 120.024L134.15 119.783C134.263 120.275 134.505 120.647 134.874 120.898C135.244 121.149 135.724 121.274 136.316 121.274C136.927 121.274 137.417 121.149 137.786 120.898C138.16 120.647 138.347 120.337 138.347 119.967C138.347 119.655 138.227 119.397 137.985 119.193C137.748 118.99 137.379 118.833 136.877 118.724L135.016 118.334C133.97 118.116 133.196 117.749 132.694 117.233C132.192 116.712 131.943 116.054 131.948 115.259C131.943 114.586 132.126 114.004 132.495 113.511C132.869 113.014 133.388 112.631 134.05 112.361C134.718 112.086 135.487 111.949 136.359 111.949C137.637 111.949 138.643 112.221 139.377 112.766C140.116 113.31 140.573 114.046 140.748 114.974ZM21.5016 147.213C20.5073 147.213 19.6526 147.033 18.9377 146.673C18.2227 146.313 17.6711 145.828 17.2828 145.217C16.8993 144.602 16.7076 143.908 16.7076 143.136C16.7076 142.554 16.8259 142.038 17.0627 141.588C17.3042 141.138 17.6356 140.722 18.057 140.338C18.4831 139.955 18.9756 139.573 19.5343 139.195L22.1124 137.44C22.4912 137.194 22.7776 136.934 22.9718 136.659C23.1706 136.384 23.2701 136.062 23.2701 135.693C23.2701 135.381 23.1375 135.085 22.8723 134.805C22.6119 134.526 22.2521 134.386 21.7928 134.386C21.485 134.386 21.2128 134.46 20.976 134.607C20.744 134.749 20.5617 134.936 20.4292 135.168C20.3013 135.4 20.2374 135.646 20.2374 135.906C20.2374 136.223 20.325 136.545 20.5002 136.872C20.6801 137.199 20.9121 137.537 21.1962 137.888C21.485 138.238 21.7928 138.61 22.1195 139.003L28.9448 147H26.1607L20.4931 140.509C20.0717 140.016 19.6645 139.531 19.2715 139.053C18.8832 138.574 18.5636 138.077 18.3127 137.561C18.0665 137.04 17.9434 136.477 17.9434 135.871C17.9434 135.184 18.102 134.571 18.4192 134.031C18.7364 133.487 19.1792 133.058 19.7473 132.746C20.3203 132.433 20.9902 132.277 21.7573 132.277C22.5243 132.277 23.1825 132.429 23.7317 132.732C24.281 133.035 24.7047 133.437 25.003 133.939C25.3013 134.441 25.4505 134.988 25.4505 135.58C25.4505 136.266 25.28 136.882 24.9391 137.426C24.5982 137.966 24.1247 138.456 23.5186 138.896L20.5783 141.048C20.0953 141.399 19.7497 141.754 19.5414 142.114C19.333 142.469 19.2289 142.772 19.2289 143.023C19.2289 143.406 19.3259 143.754 19.5201 144.067C19.7142 144.379 19.9864 144.63 20.3368 144.82C20.6919 145.004 21.1062 145.097 21.5797 145.097C22.1006 145.097 22.6143 144.981 23.1209 144.749C23.6275 144.512 24.0892 144.176 24.5059 143.74C24.9225 143.304 25.254 142.784 25.5002 142.178C25.7464 141.567 25.8695 140.89 25.8695 140.146H28.0783C28.0783 141.065 27.9765 141.865 27.7729 142.547C27.5693 143.224 27.3065 143.797 26.9846 144.266C26.6626 144.73 26.3217 145.101 25.9618 145.381C25.8482 145.461 25.7393 145.542 25.6351 145.622C25.531 145.703 25.4221 145.783 25.3084 145.864C24.7971 146.328 24.1981 146.669 23.5115 146.886C22.8297 147.104 22.1597 147.213 21.5016 147.213ZM35.4913 147V132.455H44.9515V134.663H38.1262V138.612H44.4615V140.821H38.1262V144.791H45.0083V147H35.4913ZM51.5744 147.192C50.7174 147.192 49.9503 146.972 49.2733 146.531C48.5962 146.091 48.0611 145.452 47.6681 144.614C47.2752 143.776 47.0787 142.758 47.0787 141.56C47.0787 140.348 47.2775 139.325 47.6752 138.491C48.0777 137.653 48.6199 137.021 49.3017 136.595C49.9835 136.164 50.7434 135.949 51.5815 135.949C52.2207 135.949 52.7463 136.058 53.1582 136.276C53.5701 136.489 53.8968 136.747 54.1383 137.05C54.3798 137.348 54.5668 137.63 54.6994 137.895H54.8059V132.455H57.3841V147H54.8556V145.281H54.6994C54.5668 145.546 54.3751 145.828 54.1241 146.126C53.8732 146.42 53.5417 146.671 53.1298 146.879C52.7179 147.088 52.1994 147.192 51.5744 147.192ZM52.2917 145.082C52.8362 145.082 53.3002 144.936 53.6838 144.642C54.0673 144.344 54.3585 143.929 54.5574 143.399C54.7562 142.869 54.8556 142.251 54.8556 141.545C54.8556 140.84 54.7562 140.227 54.5574 139.706C54.3632 139.185 54.0744 138.78 53.6909 138.491C53.3121 138.203 52.8457 138.058 52.2917 138.058C51.7188 138.058 51.2406 138.207 50.8571 138.506C50.4735 138.804 50.1847 139.216 49.9906 139.741C49.7965 140.267 49.6994 140.868 49.6994 141.545C49.6994 142.227 49.7965 142.836 49.9906 143.371C50.1895 143.901 50.4806 144.32 50.8642 144.628C51.2524 144.931 51.7283 145.082 52.2917 145.082ZM67.0769 142.412V136.091H69.6479V147H67.155V145.061H67.0414C66.7952 145.672 66.3903 146.171 65.8269 146.56C65.2682 146.948 64.5792 147.142 63.7601 147.142C63.0452 147.142 62.4131 146.983 61.8638 146.666C61.3193 146.344 60.8932 145.878 60.5854 145.267C60.2776 144.652 60.1238 143.908 60.1238 143.037V136.091H62.6948V142.639C62.6948 143.33 62.8842 143.88 63.263 144.287C63.6417 144.694 64.1389 144.898 64.7544 144.898C65.1332 144.898 65.5002 144.805 65.8553 144.621C66.2104 144.436 66.5016 144.161 66.7289 143.797C66.9609 143.428 67.0769 142.966 67.0769 142.412ZM77.0502 147.213C75.9612 147.213 75.0261 146.974 74.2449 146.496C73.4683 146.018 72.8694 145.357 72.448 144.514C72.0313 143.667 71.823 142.691 71.823 141.588C71.823 140.48 72.036 139.502 72.4622 138.655C72.8883 137.803 73.4896 137.14 74.2662 136.666C75.0474 136.188 75.9707 135.949 77.036 135.949C77.9215 135.949 78.7051 136.112 79.3869 136.439C80.0734 136.761 80.6203 137.218 81.0275 137.81C81.4347 138.397 81.6667 139.083 81.7235 139.869H79.2662C79.1667 139.344 78.93 138.906 78.5559 138.555C78.1866 138.2 77.6918 138.023 77.0716 138.023C76.546 138.023 76.0843 138.165 75.6866 138.449C75.2889 138.728 74.9788 139.131 74.7562 139.656C74.5384 140.182 74.4295 140.812 74.4295 141.545C74.4295 142.289 74.5384 142.928 74.7562 143.463C74.974 143.993 75.2794 144.403 75.6724 144.692C76.0701 144.976 76.5365 145.118 77.0716 145.118C77.4503 145.118 77.7889 145.047 78.0872 144.905C78.3902 144.758 78.6435 144.547 78.8471 144.273C79.0507 143.998 79.1904 143.664 79.2662 143.271H81.7235C81.662 144.043 81.4347 144.727 81.0417 145.324C80.6487 145.916 80.1137 146.38 79.4366 146.716C78.7595 147.047 77.9641 147.213 77.0502 147.213ZM86.9739 147.22C86.2826 147.22 85.66 147.097 85.106 146.851C84.5568 146.6 84.1212 146.231 83.7992 145.743C83.4819 145.255 83.3233 144.654 83.3233 143.939C83.3233 143.323 83.437 142.814 83.6642 142.412C83.8915 142.009 84.2016 141.688 84.5946 141.446C84.9876 141.205 85.4303 141.022 85.9228 140.899C86.4199 140.771 86.9337 140.679 87.464 140.622C88.1032 140.556 88.6216 140.497 89.0194 140.445C89.4171 140.388 89.7059 140.303 89.8858 140.189C90.0705 140.071 90.1628 139.888 90.1628 139.642V139.599C90.1628 139.064 90.0042 138.65 89.687 138.357C89.3697 138.063 88.9128 137.916 88.3162 137.916C87.6865 137.916 87.187 138.054 86.8176 138.328C86.4531 138.603 86.2069 138.927 86.079 139.301L83.6784 138.96C83.8678 138.297 84.1803 137.743 84.6159 137.298C85.0516 136.848 85.5842 136.512 86.214 136.29C86.8437 136.062 87.5397 135.949 88.302 135.949C88.8276 135.949 89.3508 136.01 89.8716 136.134C90.3925 136.257 90.8683 136.46 91.2992 136.744C91.7301 137.024 92.0757 137.405 92.3361 137.888C92.6013 138.371 92.7338 138.974 92.7338 139.699V147H90.2623V145.501H90.177C90.0208 145.804 89.8006 146.089 89.5165 146.354C89.2372 146.614 88.8844 146.825 88.4583 146.986C88.0369 147.142 87.5421 147.22 86.9739 147.22ZM87.6415 145.331C88.1576 145.331 88.6051 145.229 88.9838 145.026C89.3626 144.817 89.6538 144.543 89.8574 144.202C90.0658 143.861 90.1699 143.489 90.1699 143.087V141.801C90.0894 141.867 89.9521 141.929 89.758 141.986C89.5686 142.043 89.3555 142.092 89.1188 142.135C88.882 142.178 88.6477 142.215 88.4157 142.249C88.1837 142.282 87.9824 142.31 87.812 142.334C87.4284 142.386 87.0852 142.471 86.7821 142.589C86.4791 142.708 86.24 142.874 86.0648 143.087C85.8896 143.295 85.802 143.565 85.802 143.896C85.802 144.37 85.9748 144.727 86.3205 144.969C86.6661 145.21 87.1065 145.331 87.6415 145.331ZM100.767 136.091V138.08H94.4952V136.091H100.767ZM96.0435 133.477H98.6145V143.719C98.6145 144.064 98.6666 144.33 98.7708 144.514C98.8797 144.694 99.0217 144.817 99.1969 144.884C99.3721 144.95 99.5662 144.983 99.7793 144.983C99.9403 144.983 100.087 144.971 100.22 144.947C100.357 144.924 100.461 144.902 100.532 144.884L100.965 146.893C100.828 146.941 100.632 146.993 100.376 147.05C100.125 147.107 99.8172 147.14 99.4526 147.149C98.8087 147.168 98.2286 147.071 97.7125 146.858C97.1964 146.64 96.7869 146.304 96.4838 145.849C96.1855 145.395 96.0388 144.827 96.0435 144.145V133.477ZM102.917 147V136.091H105.488V147H102.917ZM104.209 134.543C103.802 134.543 103.452 134.408 103.158 134.138C102.865 133.863 102.718 133.534 102.718 133.151C102.718 132.762 102.865 132.433 103.158 132.163C103.452 131.889 103.802 131.751 104.209 131.751C104.621 131.751 104.972 131.889 105.26 132.163C105.554 132.433 105.701 132.762 105.701 133.151C105.701 133.534 105.554 133.863 105.26 134.138C104.972 134.408 104.621 134.543 104.209 134.543ZM112.89 147.213C111.825 147.213 110.901 146.979 110.12 146.51C109.339 146.041 108.733 145.385 108.302 144.543C107.876 143.7 107.663 142.715 107.663 141.588C107.663 140.461 107.876 139.474 108.302 138.626C108.733 137.779 109.339 137.121 110.12 136.652C110.901 136.183 111.825 135.949 112.89 135.949C113.955 135.949 114.879 136.183 115.66 136.652C116.441 137.121 117.045 137.779 117.471 138.626C117.902 139.474 118.117 140.461 118.117 141.588C118.117 142.715 117.902 143.7 117.471 144.543C117.045 145.385 116.441 146.041 115.66 146.51C114.879 146.979 113.955 147.213 112.89 147.213ZM112.904 145.153C113.482 145.153 113.965 144.995 114.353 144.678C114.741 144.356 115.03 143.925 115.22 143.385C115.414 142.845 115.511 142.244 115.511 141.581C115.511 140.913 115.414 140.31 115.22 139.77C115.03 139.225 114.741 138.792 114.353 138.47C113.965 138.148 113.482 137.987 112.904 137.987C112.312 137.987 111.82 138.148 111.427 138.47C111.039 138.792 110.748 139.225 110.553 139.77C110.364 140.31 110.269 140.913 110.269 141.581C110.269 142.244 110.364 142.845 110.553 143.385C110.748 143.925 111.039 144.356 111.427 144.678C111.82 144.995 112.312 145.153 112.904 145.153ZM122.871 140.608V147H120.3V136.091H122.757V137.945H122.885C123.136 137.334 123.536 136.848 124.085 136.489C124.639 136.129 125.323 135.949 126.138 135.949C126.89 135.949 127.546 136.11 128.105 136.432C128.668 136.754 129.104 137.22 129.412 137.831C129.724 138.442 129.878 139.183 129.873 140.054V147H127.302V140.452C127.302 139.723 127.113 139.152 126.734 138.74C126.36 138.328 125.842 138.122 125.179 138.122C124.729 138.122 124.329 138.222 123.979 138.42C123.633 138.615 123.361 138.896 123.162 139.266C122.968 139.635 122.871 140.082 122.871 140.608Z" fill="#01001E"/>
<g clip-path="url(#clip0_94_601)">
<path d="M97.0898 29.913H49.7797C47.3921 29.913 45.4565 31.8486 45.4565 34.2362V66.481C45.4565 68.8687 47.3921 70.8042 49.7797 70.8042H97.0898C99.4775 70.8042 101.413 68.8687 101.413 66.481V34.2362C101.413 31.8486 99.4775 29.913 97.0898 29.913Z" stroke="#233469" stroke-width="3.125" stroke-linejoin="round"/>
<path d="M41.1523 72.9565H105.717H41.1523Z" fill="#233469"/>
<path d="M41.1523 72.9565H105.717" stroke="#233469" stroke-width="3.125" stroke-miterlimit="10" stroke-linecap="round"/>
<path d="M59.1972 62.1262C59.039 62.0057 58.8841 61.8809 58.7327 61.7519C58.8409 61.9253 58.9993 62.0597 59.1972 62.1262ZM60.3661 44.8122H86.9425V60.3602C87.8741 59.8436 88.3745 59.4917 88.7173 59.2662V43.9222C88.717 43.6867 88.6233 43.4609 88.4567 43.2944C88.29 43.1279 88.0641 43.0344 87.8286 43.0344H59.4774C58.9858 43.0344 58.5874 43.4328 58.5874 43.9222V59.3056C58.9249 59.5184 59.4095 59.8752 60.3661 60.4088V44.8122Z" fill="#233469"/>
<path d="M90.2455 59.0036C90.0166 58.821 89.6996 58.8219 89.1966 59.0036C89.05 59.057 88.9016 59.1458 88.7173 59.2662C88.3745 59.4917 87.8746 59.8436 86.9425 60.3602C86.6549 60.5178 86.3415 60.6877 85.9615 60.8781C85.8424 60.9376 85.7277 60.9862 85.6099 61.0431C83.4679 62.0518 81.5413 62.3757 81.5413 62.3757H75.1607C75.0399 62.3757 74.6529 62.4502 74.4673 62.7299C74.2843 63.0092 74.3149 63.4697 74.3149 63.4697V64.2472C74.5452 64.4105 74.7886 64.5567 75.0569 64.6491C76.9805 65.3049 78.282 64.7331 78.8498 63.9364C79.5139 63.0022 79.8519 62.479 80.5812 62.7522C81.3106 63.0254 80.5812 64.801 79.6707 65.7129C78.7579 66.6252 77.6639 67.3541 76.1159 67.3541C75.4654 67.3541 74.835 67.2565 74.3149 67.1457V73.7697C74.3149 75.639 76.3015 76.638 77.6674 76.638C79.0333 76.638 81.768 75.864 83.0901 72.5829C84.4109 69.3026 83.0004 64.9739 83.0004 64.9739C83.0004 64.9739 85.1402 64.0148 87.3742 62.6038C89.606 61.192 90.2 59.8695 90.2455 59.6839C90.2893 59.4969 90.4714 59.1865 90.2455 59.0036Z" fill="#233469"/>
<path d="M79.6707 65.7125C80.5812 64.8006 81.3106 63.025 80.5812 62.7518C79.8519 62.4786 79.5139 63.0017 78.8498 63.936C78.282 64.7327 76.9805 65.3044 75.0569 64.6487C74.7886 64.5563 74.5452 64.4101 74.3149 64.2468C73.3649 63.5713 72.7183 62.4786 72.2425 62.4786H65.8619C65.8619 62.4786 64.092 62.1792 62.0603 61.2677C61.8563 61.1758 61.651 61.0847 61.4426 60.9801C61.0793 60.798 60.7204 60.6074 60.3661 60.4084C59.4095 59.8747 58.9249 59.5184 58.5874 59.3052C58.4469 59.2163 58.3278 59.1498 58.2061 59.106C57.7053 58.9239 57.3862 58.9239 57.1581 59.106C56.9313 59.289 57.1125 59.5998 57.1581 59.7859C57.1931 59.9281 57.5578 60.742 58.7323 61.7515C59.1416 62.1 59.5751 62.419 60.0294 62.7063C62.2612 64.119 64.4032 65.0755 64.4032 65.0755C64.4032 65.0755 62.9905 69.4033 64.3135 72.6845C65.6347 75.9651 68.3686 76.7426 69.7353 76.7426C71.1025 76.7426 73.0891 75.7371 73.0891 73.8691V66.8073C73.0891 66.8073 73.5935 66.9912 74.3145 67.1448C74.8346 67.2556 75.4649 67.3532 76.1155 67.3532C77.6639 67.3537 78.7579 66.6248 79.6707 65.7125ZM78.5246 53.0511C77.473 53.0514 76.4646 53.4692 75.721 54.2127C74.9774 54.9562 74.5595 55.9645 74.5592 57.0161C74.5592 59.2045 76.3344 60.9805 78.5246 60.9805C80.7126 60.9805 82.4873 59.2045 82.4873 57.0161C82.4873 54.8272 80.7126 53.0511 78.5246 53.0511Z" fill="#233469"/>
<path d="M69.1243 53.0511C66.9354 53.0511 65.1611 54.8272 65.1611 57.0161C65.1611 59.2045 66.935 60.9805 69.1243 60.9805C71.3145 60.9805 73.0897 59.2045 73.0897 57.0161C73.0897 54.8272 71.3145 53.0511 69.1243 53.0511Z" fill="#233469"/>
</g>
<defs>
<clipPath id="clip0_94_601">
<rect width="68.8695" height="68.8695" fill="white" transform="translate(39 17)"/>
</clipPath>
</defs>
</svg>
