<svg width="112" height="147" viewBox="0 0 112 147" fill="none" xmlns="http://www.w3.org/2000/svg">
<path d="M55.6597 2C82.9857 2.00011 105.138 24.1525 105.138 51.4785C105.138 78.8044 82.9856 100.956 55.6597 100.956C28.3336 100.956 6.1813 78.8045 6.18115 51.4785C6.18115 24.1524 28.3336 2 55.6597 2Z" stroke="#233469" stroke-width="4"/>
<path d="M22.2085 112.105C22.1422 111.485 21.8628 111.002 21.3704 110.656C20.8827 110.311 20.2482 110.138 19.467 110.138C18.9177 110.138 18.4466 110.221 18.0536 110.387C17.6606 110.552 17.36 110.777 17.1516 111.061C16.9433 111.345 16.8368 111.67 16.832 112.034C16.832 112.337 16.9007 112.6 17.038 112.823C17.18 113.045 17.3718 113.235 17.6133 113.391C17.8548 113.542 18.1223 113.67 18.4158 113.774C18.7094 113.878 19.0053 113.966 19.3036 114.037L20.6673 114.378C21.2165 114.506 21.7444 114.679 22.2511 114.896C22.7624 115.114 23.2193 115.389 23.6218 115.72C24.029 116.052 24.351 116.452 24.5877 116.921C24.8245 117.389 24.9428 117.939 24.9428 118.568C24.9428 119.421 24.725 120.171 24.2894 120.82C23.8538 121.464 23.2241 121.968 22.4002 122.333C21.5811 122.692 20.5891 122.872 19.4244 122.872C18.2927 122.872 17.3103 122.697 16.4769 122.347C15.6483 121.996 14.9997 121.485 14.5309 120.813C14.0669 120.14 13.8159 119.321 13.7781 118.355H16.3704C16.4083 118.862 16.5645 119.283 16.8391 119.619C17.1138 119.956 17.4712 120.207 17.9116 120.372C18.3567 120.538 18.8538 120.621 19.4031 120.621C19.976 120.621 20.4779 120.536 20.9087 120.365C21.3443 120.19 21.6853 119.949 21.9315 119.641C22.1777 119.328 22.3032 118.964 22.3079 118.547C22.3032 118.168 22.1919 117.856 21.9741 117.61C21.7563 117.359 21.4509 117.15 21.0579 116.985C20.6696 116.814 20.2151 116.663 19.6943 116.53L18.0394 116.104C16.8415 115.796 15.8945 115.33 15.1985 114.705C14.5072 114.075 14.1616 113.239 14.1616 112.198C14.1616 111.341 14.3936 110.59 14.8576 109.946C15.3264 109.302 15.9632 108.803 16.7681 108.448C17.573 108.088 18.4845 107.908 19.5025 107.908C20.5347 107.908 21.439 108.088 22.2156 108.448C22.9968 108.803 23.61 109.298 24.055 109.932C24.5001 110.562 24.7298 111.286 24.744 112.105H22.2085ZM32.6257 111.743V113.732H26.3544V111.743H32.6257ZM27.9027 109.129H30.4737V119.371C30.4737 119.717 30.5258 119.982 30.63 120.166C30.7389 120.346 30.8809 120.469 31.0561 120.536C31.2313 120.602 31.4254 120.635 31.6385 120.635C31.7995 120.635 31.9463 120.623 32.0788 120.6C32.2162 120.576 32.3203 120.555 32.3913 120.536L32.8246 122.546C32.6873 122.593 32.4908 122.645 32.2351 122.702C31.9841 122.759 31.6764 122.792 31.3118 122.801C30.6679 122.82 30.0878 122.723 29.5717 122.51C29.0556 122.292 28.6461 121.956 28.343 121.502C28.0448 121.047 27.898 120.479 27.9027 119.797V109.129ZM34.7759 122.652V111.743H37.2688V113.561H37.3825C37.5813 112.932 37.9222 112.446 38.4052 112.105C38.8929 111.76 39.4492 111.587 40.0742 111.587C40.2163 111.587 40.3749 111.594 40.5501 111.608C40.73 111.618 40.8791 111.634 40.9975 111.658V114.023C40.8886 113.985 40.7158 113.952 40.4791 113.923C40.247 113.89 40.0221 113.874 39.8043 113.874C39.3356 113.874 38.9142 113.976 38.5401 114.179C38.1708 114.378 37.8796 114.655 37.6666 115.01C37.4535 115.365 37.347 115.775 37.347 116.239V122.652H34.7759ZM47.0859 122.865C45.9922 122.865 45.0476 122.638 44.2521 122.183C43.4614 121.724 42.853 121.075 42.4269 120.237C42.0007 119.395 41.7876 118.403 41.7876 117.262C41.7876 116.139 42.0007 115.155 42.4269 114.307C42.8577 113.455 43.459 112.792 44.2308 112.318C45.0026 111.84 45.9093 111.601 46.951 111.601C47.6233 111.601 48.2578 111.71 48.8544 111.928C49.4557 112.141 49.986 112.472 50.4453 112.922C50.9093 113.372 51.2739 113.945 51.5391 114.641C51.8042 115.332 51.9368 116.156 51.9368 117.112V117.901H42.995V116.168H49.4723C49.4676 115.675 49.361 115.237 49.1527 114.854C48.9444 114.466 48.6532 114.16 48.2791 113.938C47.9098 113.715 47.4789 113.604 46.9865 113.604C46.4609 113.604 45.9993 113.732 45.6016 113.987C45.2038 114.238 44.8937 114.57 44.6712 114.982C44.4534 115.389 44.3421 115.836 44.3374 116.324V117.837C44.3374 118.471 44.4534 119.016 44.6854 119.47C44.9174 119.92 45.2417 120.266 45.6584 120.507C46.0751 120.744 46.5627 120.862 47.1215 120.862C47.4955 120.862 47.834 120.81 48.1371 120.706C48.4401 120.597 48.7029 120.439 48.9254 120.23C49.148 120.022 49.3161 119.764 49.4297 119.456L51.8303 119.726C51.6787 120.36 51.3899 120.914 50.9638 121.388C50.5424 121.857 50.0026 122.221 49.3445 122.482C48.6863 122.737 47.9335 122.865 47.0859 122.865ZM54.1119 122.652V111.743H56.5693V113.597H56.6971C56.9244 112.972 57.3008 112.484 57.8264 112.134C58.3519 111.779 58.9793 111.601 59.7085 111.601C60.4471 111.601 61.0697 111.781 61.5764 112.141C62.0877 112.496 62.4476 112.981 62.6559 113.597H62.7695C63.011 112.991 63.4182 112.508 63.9911 112.148C64.5688 111.783 65.253 111.601 66.0437 111.601C67.0475 111.601 67.8666 111.918 68.5011 112.553C69.1355 113.187 69.4528 114.113 69.4528 115.33V122.652H66.8747V115.727C66.8747 115.05 66.6947 114.556 66.3349 114.243C65.975 113.926 65.5347 113.767 65.0139 113.767C64.3936 113.767 63.9083 113.961 63.5579 114.35C63.2122 114.733 63.0394 115.233 63.0394 115.848V122.652H60.5181V115.621C60.5181 115.057 60.3477 114.608 60.0068 114.271C59.6706 113.935 59.2302 113.767 58.6857 113.767C58.3164 113.767 57.9802 113.862 57.6772 114.051C57.3742 114.236 57.1327 114.499 56.9528 114.84C56.7729 115.176 56.6829 115.569 56.6829 116.019V122.652H54.1119ZM75.2003 122.872C74.509 122.872 73.8864 122.749 73.3324 122.503C72.7832 122.252 72.3475 121.883 72.0256 121.395C71.7083 120.907 71.5497 120.306 71.5497 119.591C71.5497 118.976 71.6634 118.467 71.8906 118.064C72.1179 117.662 72.428 117.34 72.821 117.098C73.214 116.857 73.6567 116.674 74.1492 116.551C74.6463 116.423 75.16 116.331 75.6904 116.274C76.3296 116.208 76.848 116.149 77.2457 116.097C77.6435 116.04 77.9323 115.955 78.1122 115.841C78.2969 115.723 78.3892 115.54 78.3892 115.294V115.252C78.3892 114.717 78.2306 114.302 77.9134 114.009C77.5961 113.715 77.1392 113.568 76.5426 113.568C75.9129 113.568 75.4134 113.706 75.044 113.98C74.6795 114.255 74.4332 114.579 74.3054 114.953L71.9048 114.612C72.0942 113.95 72.4067 113.396 72.8423 112.95C73.2779 112.501 73.8106 112.164 74.4404 111.942C75.0701 111.715 75.7661 111.601 76.5284 111.601C77.054 111.601 77.5772 111.663 78.098 111.786C78.6189 111.909 79.0947 112.112 79.5256 112.396C79.9564 112.676 80.3021 113.057 80.5625 113.54C80.8277 114.023 80.9602 114.627 80.9602 115.351V122.652H78.4886V121.154H78.4034C78.2472 121.457 78.027 121.741 77.7429 122.006C77.4636 122.266 77.1108 122.477 76.6847 122.638C76.2633 122.794 75.7685 122.872 75.2003 122.872ZM75.8679 120.983C76.384 120.983 76.8314 120.881 77.2102 120.678C77.589 120.469 77.8802 120.195 78.0838 119.854C78.2921 119.513 78.3963 119.141 78.3963 118.739V117.453C78.3158 117.52 78.1785 117.581 77.9844 117.638C77.795 117.695 77.5819 117.744 77.3452 117.787C77.1084 117.83 76.8741 117.868 76.6421 117.901C76.41 117.934 76.2088 117.962 76.0384 117.986C75.6548 118.038 75.3116 118.123 75.0085 118.242C74.7055 118.36 74.4664 118.526 74.2912 118.739C74.116 118.947 74.0284 119.217 74.0284 119.548C74.0284 120.022 74.2012 120.379 74.5469 120.621C74.8925 120.862 75.3329 120.983 75.8679 120.983ZM85.6477 111.743L87.8494 115.77L90.0867 111.743H92.8068L89.5185 117.198L92.8636 122.652H90.1577L87.8494 118.725L85.5625 122.652H82.8352L86.1591 117.198L82.9205 111.743H85.6477ZM2.95597 146.652V132.107H8.41052C9.52794 132.107 10.4654 132.315 11.223 132.732C11.9853 133.148 12.5606 133.721 12.9489 134.45C13.3419 135.175 13.5384 135.999 13.5384 136.922C13.5384 137.855 13.3419 138.683 12.9489 139.408C12.5559 140.132 11.9759 140.703 11.2088 141.119C10.4418 141.531 9.49717 141.737 8.37501 141.737H4.75995V139.571H8.01989C8.6733 139.571 9.20834 139.458 9.62501 139.23C10.0417 139.003 10.3494 138.691 10.5483 138.293C10.7519 137.895 10.8537 137.438 10.8537 136.922C10.8537 136.406 10.7519 135.951 10.5483 135.558C10.3494 135.165 10.0393 134.86 9.6179 134.642C9.20124 134.42 8.66383 134.308 8.00569 134.308H5.59092V146.652H2.95597ZM22.6666 142.064V135.743H25.2376V146.652H22.7447V144.713H22.631C22.3848 145.324 21.98 145.824 21.4166 146.212C20.8578 146.6 20.1689 146.794 19.3498 146.794C18.6348 146.794 18.0027 146.636 17.4535 146.318C16.909 145.996 16.4828 145.53 16.1751 144.919C15.8673 144.304 15.7134 143.56 15.7134 142.689V135.743H18.2845V142.291C18.2845 142.983 18.4738 143.532 18.8526 143.939C19.2314 144.346 19.7286 144.55 20.3441 144.55C20.7229 144.55 21.0898 144.458 21.445 144.273C21.8001 144.088 22.0913 143.814 22.3185 143.449C22.5506 143.08 22.6666 142.618 22.6666 142.064ZM27.995 146.652V132.107H30.5661V137.547H30.6726C30.8052 137.282 30.9922 137 31.2337 136.702C31.4751 136.399 31.8019 136.141 32.2138 135.928C32.6257 135.71 33.1513 135.601 33.7905 135.601C34.6333 135.601 35.3932 135.816 36.0703 136.247C36.7521 136.673 37.2919 137.306 37.6896 138.144C38.0921 138.977 38.2933 140 38.2933 141.212C38.2933 142.41 38.0968 143.428 37.7038 144.266C37.3108 145.104 36.7758 145.743 36.0987 146.183C35.4216 146.624 34.6546 146.844 33.7976 146.844C33.1726 146.844 32.6541 146.74 32.2422 146.531C31.8303 146.323 31.4988 146.072 31.2479 145.779C31.0017 145.48 30.8099 145.199 30.6726 144.933H30.5234V146.652H27.995ZM30.5163 141.198C30.5163 141.903 30.6158 142.521 30.8146 143.051C31.0182 143.582 31.3094 143.996 31.6882 144.294C32.0717 144.588 32.5358 144.735 33.0803 144.735C33.6484 144.735 34.1243 144.583 34.5078 144.28C34.8913 143.972 35.1802 143.553 35.3743 143.023C35.5732 142.488 35.6726 141.879 35.6726 141.198C35.6726 140.521 35.5755 139.919 35.3814 139.394C35.1873 138.868 34.8984 138.456 34.5149 138.158C34.1314 137.86 33.6532 137.71 33.0803 137.71C32.531 137.71 32.0646 137.855 31.6811 138.144C31.2976 138.432 31.0064 138.837 30.8075 139.358C30.6134 139.879 30.5163 140.492 30.5163 141.198ZM43.0501 132.107V146.652H40.4791V132.107H43.0501ZM45.6939 146.652V135.743H48.2649V146.652H45.6939ZM46.9865 134.195C46.5793 134.195 46.2289 134.06 45.9354 133.79C45.6418 133.515 45.495 133.186 45.495 132.803C45.495 132.414 45.6418 132.085 45.9354 131.816C46.2289 131.541 46.5793 131.404 46.9865 131.404C47.3984 131.404 47.7488 131.541 48.0376 131.816C48.3312 132.085 48.478 132.414 48.478 132.803C48.478 133.186 48.3312 133.515 48.0376 133.79C47.7488 134.06 47.3984 134.195 46.9865 134.195ZM55.6673 146.865C54.5782 146.865 53.6431 146.626 52.8619 146.148C52.0854 145.67 51.4864 145.009 51.065 144.166C50.6483 143.319 50.44 142.343 50.44 141.24C50.44 140.132 50.6531 139.155 51.0792 138.307C51.5053 137.455 52.1067 136.792 52.8832 136.318C53.6644 135.84 54.5877 135.601 55.6531 135.601C56.5385 135.601 57.3221 135.764 58.0039 136.091C58.6905 136.413 59.2373 136.87 59.6445 137.462C60.0517 138.049 60.2837 138.735 60.3406 139.521H57.8832C57.7837 138.996 57.547 138.558 57.1729 138.208C56.8036 137.852 56.3088 137.675 55.6886 137.675C55.163 137.675 54.7014 137.817 54.3036 138.101C53.9059 138.38 53.5958 138.783 53.3732 139.308C53.1554 139.834 53.0465 140.464 53.0465 141.198C53.0465 141.941 53.1554 142.58 53.3732 143.115C53.591 143.646 53.8964 144.055 54.2894 144.344C54.6872 144.628 55.1535 144.77 55.6886 144.77C56.0674 144.77 56.4059 144.699 56.7042 144.557C57.0072 144.41 57.2605 144.2 57.4641 143.925C57.6677 143.65 57.8074 143.316 57.8832 142.923H60.3406C60.279 143.695 60.0517 144.379 59.6587 144.976C59.2657 145.568 58.7307 146.032 58.0536 146.368C57.3765 146.7 56.5811 146.865 55.6673 146.865ZM65.5909 146.872C64.8996 146.872 64.277 146.749 63.723 146.503C63.1738 146.252 62.7382 145.883 62.4162 145.395C62.099 144.907 61.9403 144.306 61.9403 143.591C61.9403 142.976 62.054 142.467 62.2813 142.064C62.5085 141.662 62.8187 141.34 63.2117 141.098C63.6046 140.857 64.0474 140.674 64.5398 140.551C65.0369 140.423 65.5507 140.331 66.081 140.274C66.7202 140.208 67.2386 140.149 67.6364 140.097C68.0341 140.04 68.3229 139.955 68.5028 139.841C68.6875 139.723 68.7798 139.54 68.7798 139.294V139.252C68.7798 138.717 68.6212 138.302 68.304 138.009C67.9867 137.715 67.5298 137.568 66.9332 137.568C66.3035 137.568 65.804 137.706 65.4347 137.98C65.0701 138.255 64.8239 138.579 64.696 138.953L62.2955 138.612C62.4849 137.95 62.7974 137.396 63.233 136.95C63.6686 136.501 64.2012 136.164 64.831 135.942C65.4607 135.715 66.1567 135.601 66.919 135.601C67.4446 135.601 67.9678 135.663 68.4886 135.786C69.0095 135.909 69.4853 136.112 69.9162 136.396C70.3471 136.676 70.6927 137.057 70.9531 137.54C71.2183 138.023 71.3509 138.627 71.3509 139.351V146.652H68.8793V145.154H68.794C68.6378 145.457 68.4176 145.741 68.1335 146.006C67.8542 146.266 67.5014 146.477 67.0753 146.638C66.6539 146.794 66.1591 146.872 65.5909 146.872ZM66.2585 144.983C66.7746 144.983 67.2221 144.881 67.6009 144.678C67.9796 144.469 68.2708 144.195 68.4744 143.854C68.6828 143.513 68.7869 143.141 68.7869 142.739V141.453C68.7064 141.52 68.5691 141.581 68.375 141.638C68.1856 141.695 67.9725 141.744 67.7358 141.787C67.4991 141.83 67.2647 141.868 67.0327 141.901C66.8007 141.934 66.5994 141.962 66.429 141.986C66.0455 142.038 65.7022 142.123 65.3992 142.242C65.0961 142.36 64.857 142.526 64.6818 142.739C64.5066 142.947 64.419 143.217 64.419 143.548C64.419 144.022 64.5919 144.379 64.9375 144.621C65.2832 144.862 65.7235 144.983 66.2585 144.983ZM79.3835 135.743V137.732H73.1122V135.743H79.3835ZM74.6605 133.129H77.2315V143.371C77.2315 143.717 77.2836 143.982 77.3878 144.166C77.4967 144.346 77.6387 144.469 77.8139 144.536C77.9891 144.602 78.1832 144.635 78.3963 144.635C78.5573 144.635 78.7041 144.623 78.8367 144.6C78.974 144.576 79.0781 144.555 79.1492 144.536L79.5824 146.546C79.4451 146.593 79.2486 146.645 78.9929 146.702C78.742 146.759 78.4342 146.792 78.0696 146.801C77.4257 146.82 76.8457 146.723 76.3296 146.51C75.8135 146.292 75.4039 145.956 75.1009 145.502C74.8026 145.047 74.6558 144.479 74.6605 143.797V133.129ZM81.5337 146.652V135.743H84.1048V146.652H81.5337ZM82.8264 134.195C82.4192 134.195 82.0688 134.06 81.7752 133.79C81.4817 133.515 81.3349 133.186 81.3349 132.803C81.3349 132.414 81.4817 132.085 81.7752 131.816C82.0688 131.541 82.4192 131.404 82.8264 131.404C83.2383 131.404 83.5887 131.541 83.8775 131.816C84.1711 132.085 84.3178 132.414 84.3178 132.803C84.3178 133.186 84.1711 133.515 83.8775 133.79C83.5887 134.06 83.2383 134.195 82.8264 134.195ZM91.5071 146.865C90.4418 146.865 89.5185 146.631 88.7372 146.162C87.956 145.693 87.3499 145.038 86.919 144.195C86.4929 143.352 86.2798 142.367 86.2798 141.24C86.2798 140.113 86.4929 139.126 86.919 138.279C87.3499 137.431 87.956 136.773 88.7372 136.304C89.5185 135.835 90.4418 135.601 91.5071 135.601C92.5725 135.601 93.4957 135.835 94.277 136.304C95.0582 136.773 95.6619 137.431 96.0881 138.279C96.5189 139.126 96.7344 140.113 96.7344 141.24C96.7344 142.367 96.5189 143.352 96.0881 144.195C95.6619 145.038 95.0582 145.693 94.277 146.162C93.4957 146.631 92.5725 146.865 91.5071 146.865ZM91.5213 144.806C92.099 144.806 92.5819 144.647 92.9702 144.33C93.3584 144.008 93.6473 143.577 93.8367 143.037C94.0308 142.497 94.1279 141.896 94.1279 141.233C94.1279 140.566 94.0308 139.962 93.8367 139.422C93.6473 138.878 93.3584 138.444 92.9702 138.122C92.5819 137.8 92.099 137.639 91.5213 137.639C90.9295 137.639 90.437 137.8 90.044 138.122C89.6558 138.444 89.3646 138.878 89.1705 139.422C88.9811 139.962 88.8864 140.566 88.8864 141.233C88.8864 141.896 88.9811 142.497 89.1705 143.037C89.3646 143.577 89.6558 144.008 90.044 144.33C90.437 144.647 90.9295 144.806 91.5213 144.806ZM101.488 140.26V146.652H98.9166V135.743H101.374V137.597H101.502C101.753 136.986 102.153 136.501 102.702 136.141C103.256 135.781 103.94 135.601 104.755 135.601C105.507 135.601 106.163 135.762 106.722 136.084C107.285 136.406 107.721 136.872 108.029 137.483C108.341 138.094 108.495 138.835 108.49 139.706V146.652H105.919V140.104C105.919 139.375 105.73 138.804 105.351 138.392C104.977 137.98 104.459 137.774 103.796 137.774C103.346 137.774 102.946 137.874 102.596 138.073C102.25 138.267 101.978 138.548 101.779 138.918C101.585 139.287 101.488 139.735 101.488 140.26Z" fill="#01001E"/>
<g clip-path="url(#clip0_94_602)">
<path d="M44.9364 73.6846C44.9364 76.7153 43.8511 79.1725 40.8204 79.1725H31.2165C25.7286 79.1725 25.7286 59.9648 31.2165 59.9648H40.8204C43.8511 59.9648 44.9364 62.422 44.9364 65.4527V73.6846Z" fill="#553788"/>
<path d="M71.004 76.4286H69.632V62.7087H71.004C71.3679 62.7087 71.7168 62.5642 71.9741 62.3069C72.2314 62.0496 72.376 61.7006 72.376 61.3368C72.376 60.9729 72.2314 60.6239 71.9741 60.3666C71.7168 60.1093 71.3679 59.9648 71.004 59.9648H38.0764C32.5885 59.9648 32.5885 79.1725 38.0764 79.1725H71.004C71.3679 79.1725 71.7168 79.028 71.9741 78.7707C72.2314 78.5134 72.376 78.1644 72.376 77.8005C72.376 77.4367 72.2314 77.0877 71.9741 76.8304C71.7168 76.5731 71.3679 76.4286 71.004 76.4286Z" fill="#9266CC"/>
<path d="M71.2397 76.4286H39.4481C36.7041 76.4286 36.7041 62.7088 39.4481 62.7088H71.2397C72.7544 62.7088 72.7544 76.4286 71.2397 76.4286Z" fill="#CCD6DD"/>
<path d="M40.134 65.4527H72.1698C71.9846 63.8407 71.6759 62.7088 71.2396 62.7088H39.448C37.1829 62.7088 36.7891 72.0492 38.264 75.3146C37.7262 71.2549 38.3491 65.4527 40.134 65.4527Z" fill="#99AAB5"/>
<path d="M40.8203 42.129C40.8203 43.5845 40.2421 44.9804 39.213 46.0096C38.1838 47.0388 36.7879 47.617 35.3324 47.617H29.8445C24.3565 47.617 24.3565 32.5252 29.8445 32.5252H35.3324C36.7879 32.5252 38.1838 33.1034 39.213 34.1325C40.2421 35.1617 40.8203 36.5576 40.8203 38.0131V42.129Z" fill="#226699"/>
<path d="M66.8878 44.873H65.5158V35.2691H66.8878C67.2516 35.2691 67.6006 35.1246 67.8579 34.8673C68.1152 34.61 68.2598 34.261 68.2598 33.8972C68.2598 33.5333 68.1152 33.1843 67.8579 32.927C67.6006 32.6697 67.2516 32.5252 66.8878 32.5252H33.9602C28.4723 32.5252 28.4723 47.617 33.9602 47.617H66.8878C67.2516 47.617 67.6006 47.4724 67.8579 47.2151C68.1152 46.9578 68.2598 46.6089 68.2598 46.245C68.2598 45.8811 68.1152 45.5322 67.8579 45.2749C67.6006 45.0176 67.2516 44.873 66.8878 44.873Z" fill="#55ACEE"/>
<path d="M67.124 44.873H35.3324C32.5884 44.873 32.5884 35.2691 35.3324 35.2691H67.124C68.6386 35.2691 68.6386 44.873 67.124 44.873Z" fill="#CCD6DD"/>
<path d="M35.3323 38.0131H68.1569C68.0005 36.4696 67.6575 35.2691 67.1238 35.2691H35.3323C33.6955 35.2691 33.0424 38.684 33.3593 41.443C33.5734 39.5799 34.2251 38.0131 35.3323 38.0131Z" fill="#99AAB5"/>
<path d="M51.7959 54.4768C51.7959 55.9323 51.2177 57.3282 50.1885 58.3574C49.1593 59.3866 47.7634 59.9648 46.3079 59.9648H32.5881C27.1002 59.9648 27.1002 47.6169 32.5881 47.6169H46.3079C47.7634 47.6169 49.1593 48.1951 50.1885 49.2243C51.2177 50.2535 51.7959 51.6494 51.7959 53.1049V54.4768Z" fill="#F4900C"/>
<path d="M72.3759 57.2208H71.0039V50.3609H72.3759C72.7398 50.3609 73.0887 50.2163 73.346 49.9591C73.6033 49.7018 73.7479 49.3528 73.7479 48.9889C73.7479 48.625 73.6033 48.2761 73.346 48.0188C73.0887 47.7615 72.7398 47.6169 72.3759 47.6169H44.9363C39.4483 47.6169 39.4483 59.9648 44.9363 59.9648H72.3759C72.7398 59.9648 73.0887 59.8202 73.346 59.5629C73.6033 59.3056 73.7479 58.9567 73.7479 58.5928C73.7479 58.2289 73.6033 57.8799 73.346 57.6226C73.0887 57.3653 72.7398 57.2208 72.3759 57.2208Z" fill="#FFAC33"/>
<path d="M72.6116 57.2208H46.308C43.564 57.2208 43.564 50.3609 46.308 50.3609H72.6116C74.1263 50.3609 74.1263 57.2208 72.6116 57.2208Z" fill="#CCD6DD"/>
<path d="M46.3081 53.1049H73.7258C73.6366 51.6479 73.2675 50.3609 72.6117 50.3609H46.3081C44.5602 50.3609 43.9304 53.1419 44.4106 55.1629C44.6823 54.0118 45.312 53.1049 46.3081 53.1049Z" fill="#99AAB5"/>
</g>
<g clip-path="url(#clip1_94_602)">
<path d="M75.9835 50.1586C76.3351 50.0016 76.6437 49.762 76.8828 49.4601C77.122 49.1583 77.2847 48.8031 77.3572 48.4249C77.4296 48.0466 77.4096 47.6565 77.2989 47.2876C77.1882 46.9188 76.99 46.5821 76.7213 46.3063L80.0441 32.7864L77.3389 33.7697L74.3913 45.727C74.0285 45.8467 73.6996 46.0516 73.4322 46.3245C73.1648 46.5974 72.9667 46.9304 72.8545 47.2956C72.7423 47.6609 72.7192 48.0477 72.7872 48.4236C72.8552 48.7996 73.0124 49.1538 73.2454 49.4566L72.0804 50.4058C71.0551 51.2064 70.3215 52.3219 69.9925 53.5805L69.2931 56.4178L71.1854 56.8842C71.64 56.9962 72.119 56.9534 72.5465 56.7626C72.974 56.5718 73.3257 56.2439 73.5459 55.8307L75.0791 52.9182L73.9344 57.5619L76.2562 58.1342L76.9488 55.3248C77.2414 54.0508 77.1085 52.7161 76.5703 51.5249L75.9835 50.1586ZM66.842 16.4049L45.9782 21.1134L61.691 37.3011L83.1271 30.2708L66.842 16.4049Z" fill="#233469"/>
<path d="M61.1187 39.6229L51.4155 29.0296L50.4368 32.9999C49.916 35.1128 55.1911 43.0875 59.974 44.2665C64.7569 45.4455 73.1341 40.8361 73.6549 38.7232L74.6336 34.753L61.1187 39.6229Z" fill="#233469"/>
</g>
<g clip-path="url(#clip2_94_602)">
<path d="M83.4559 80.3917C83.9516 78.8276 84.3897 76.2951 84.7337 72.7115L80.1029 72.7308C80.4468 76.2759 80.8849 78.8084 81.3999 80.3917C81.9879 79.8383 82.8833 79.8575 83.4559 80.3917Z" fill="#BDBDBD"/>
<path d="M82.4242 82.0307C82.7278 82.0307 83.016 81.6311 83.2831 80.8682C83.3407 80.7337 83.3964 80.5627 83.4368 80.4109C83.1579 80.1489 82.7896 80.0031 82.4069 80.0031C82.0242 80.0031 81.6559 80.1489 81.377 80.4109C81.4346 80.5839 81.4711 80.7357 81.5307 80.8682C81.817 81.6119 82.1398 82.0115 82.4242 82.0307Z" fill="#616161"/>
<path d="M81.8441 78.7488C81.8402 78.8065 81.8345 78.866 81.8306 78.9275C81.821 79.037 81.8037 79.1619 81.7076 79.2196C81.602 79.0447 81.5501 78.843 81.4982 78.6451C81.1293 77.2078 80.8295 76.1279 80.8776 74.6311C80.8814 74.5312 80.8891 74.4236 80.9467 74.3429C81.0428 74.2122 81.235 74.2045 81.3906 74.2372C81.5501 74.2698 81.8345 74.3505 81.9382 74.4889C82.0497 74.6349 81.9843 74.854 81.9747 75.0365C81.9056 76.37 81.9421 77.4095 81.8441 78.7488Z" fill="#EEEEEE"/>
<path d="M79.9667 39.9944C79.6016 40.0175 78.9444 40.0482 78.9444 40.0482C78.5793 40.0713 78.2412 40.2404 77.9914 40.5209C77.7435 40.8034 77.6186 41.1588 77.6397 41.5143C77.6224 43.0304 77.6032 44.5483 77.5859 46.0644C77.5629 48.1319 77.5129 53.1508 77.5552 53.5313C77.5994 53.9137 77.8319 53.9194 77.8722 53.9214C78.4045 53.9463 78.8983 53.5294 79.0501 53.0163C79.2 52.5052 79.0501 51.9365 78.7388 51.5022C78.5371 51.2197 78.4314 51.0833 78.4525 50.7471C78.4602 50.6241 78.7023 43.5838 78.6255 42.3924C78.612 42.1945 78.6677 41.6969 79.2038 41.6258C79.2884 41.6142 81.2291 41.449 81.2291 41.449L81.1388 40.0175L81.0927 39.9752C81.0369 39.9272 81.0369 39.9272 79.9667 39.9944Z" fill="#BDBDBD"/>
<path d="M82.4165 55.691L79.4804 55.691C79.5592 67.7368 79.7821 72.1677 79.932 73.3514C79.9589 73.5589 80.1338 73.7145 80.3451 73.7145L84.4475 73.6396C84.6589 73.6396 84.8337 73.484 84.8606 73.2765C85.0105 72.0928 85.316 67.7368 85.3929 55.6929C85.3525 55.691 82.4165 55.691 82.4165 55.691Z" fill="#1565C0"/>
<path d="M79.9145 41.08C79.6109 41.0147 79.0595 41.0435 78.7693 41.1531C78.4388 41.2799 78.3696 41.5489 78.3523 41.8237C78.3216 42.3079 78.3869 45.7973 78.4792 46.6389C78.4907 46.735 78.5061 46.8387 78.5733 46.906C78.6233 44.9999 78.7021 43.088 78.7443 42.4962C78.777 42.0446 78.825 41.6238 79.2055 41.6238C79.2439 41.6238 79.4822 41.5969 79.9241 41.5585L79.9145 41.08Z" fill="#757575"/>
<path d="M84.6666 38.8377C84.5628 38.2612 83.4829 37.8462 82.4357 37.8635C81.3866 37.8827 80.301 38.2536 80.2049 38.8377C80.1107 39.4199 78.8502 46.4833 79.0808 56.3213C79.1 56.6057 79.3287 56.8343 79.5958 56.8362L85.3141 56.8362C85.5793 56.8362 85.8291 56.6249 85.8291 56.3213C86.0212 46.4833 84.7723 39.4122 84.6666 38.8377Z" fill="#1565C0"/>
<path d="M81.4558 71.6547C81.4097 72.0352 81.0772 72.9671 80.8025 71.7201C80.7391 71.4261 80.6468 70.5537 80.618 70.1944C80.5008 68.8052 80.4604 61.4785 80.4278 60.1508C80.4009 59.0709 80.7314 58.4714 81.2675 58.7039C81.6364 58.8653 81.7286 59.3879 81.8016 61.7053C81.8593 63.6306 81.6864 69.6756 81.4558 71.6547ZM81.7017 51.0064C81.7017 51.0064 81.842 52.4956 80.9389 52.5724C80.2222 52.632 80.3432 50.9545 80.3432 50.9545C80.3413 50.9065 80.5277 44.9249 80.7083 43.2724C80.7813 42.5922 80.9235 41.7737 81.1733 41.7583C81.4231 41.7429 81.5768 42.3347 81.573 43.4876C81.5672 44.6425 81.6998 50.9622 81.7017 51.0064Z" fill="#2196F3"/>
<path d="M77.8878 51.5732C77.8359 51.8211 78.3431 52.2093 78.4796 52.5301C78.5872 52.7876 78.6852 52.8818 78.7928 52.6819C78.9061 52.4687 78.8427 52.0402 78.4604 51.6578C78.2721 51.4733 77.9396 51.3138 77.8878 51.5732Z" fill="#EEEEEE"/>
<path d="M79.836 41.3318L79.7976 41.6392C80.449 41.4835 81.3405 41.3567 82.3897 41.3567C82.8547 41.3567 83.5464 41.4067 83.8827 41.5201C84.1997 41.6296 84.5648 41.9178 84.7819 42.3117C85.0183 42.7402 85.0164 43.0419 85.293 43.4415C85.22 42.7575 85.0471 41.351 85.0471 41.351C85.0471 41.351 84.094 40.9321 82.2667 40.9302C80.4394 40.9282 79.836 41.3318 79.836 41.3318Z" fill="#0D47A1"/>
<path d="M82.4355 37.8635C81.6247 37.8789 80.7927 38.1037 80.4122 38.4726C80.4122 38.4726 81.4479 38.1594 82.3414 38.2766C83.2868 38.3996 84.04 38.6187 84.161 39.1086C84.2955 39.858 85.4388 46.4506 85.2909 55.9101C85.2904 55.9487 85.2815 55.9868 85.2646 56.0216C85.2477 56.0564 85.2233 56.087 85.1932 56.1113C85.1631 56.1355 85.1279 56.1528 85.0903 56.1619C85.0527 56.1709 85.0136 56.1716 84.9757 56.1637C84.2821 56.0158 83.4731 55.937 82.3837 55.9389C80.8234 55.9389 79.9684 56.0907 79.0864 56.3808C79.0864 56.3808 79.023 56.5864 79.2247 56.8574C79.3535 57.0322 79.4899 57.1417 79.4899 57.1417L79.5034 56.8247C80.2201 56.6229 81.1943 56.4788 82.3875 56.4808C82.8986 56.4808 83.3867 56.5077 83.8344 56.5557C83.9112 56.5787 84.5338 56.8016 84.7798 57.8661C84.7798 57.8661 84.797 58.0064 84.8278 58.2216C84.7356 67.7483 84.5107 71.9967 84.3705 72.7365C84.2225 73.5109 83.8728 73.6492 83.8728 73.6492C83.9881 73.6492 84.2571 73.6646 84.5107 73.6338C84.7682 73.6031 84.847 73.3706 84.8566 73.2764C84.9815 72.2869 85.2159 69.0857 85.3351 61.0462C85.3351 61.0347 85.337 61.0251 85.3351 61.0155C85.3524 59.8337 85.3677 58.5463 85.3793 57.1475C85.3831 57.1437 85.5176 57.0361 85.6444 56.8631C85.8443 56.5941 85.8231 56.3962 85.8231 56.3962L85.8212 56.3943C85.825 56.3712 85.827 56.3462 85.8289 56.3213C86.021 46.4833 84.7702 39.4141 84.6664 38.8377C84.5626 38.2613 83.4847 37.8443 82.4355 37.8635Z" fill="#0D47A1"/>
<path d="M82.3879 54.248C81.2081 54.248 79.9822 54.394 79.0561 54.6938C79.0561 54.6938 78.8947 54.8359 78.91 55.1357C78.9216 55.3624 79.0657 55.5565 79.0657 55.5565C79.7363 55.2971 80.8565 55.0569 82.3879 55.055C83.5408 55.055 84.6169 55.1933 85.422 55.4489C85.5853 55.5008 85.7217 55.5527 85.8409 55.6065C85.8409 55.6065 86.0119 55.4393 86.0311 55.1741C86.0503 54.8744 85.8485 54.7379 85.8485 54.7379C84.9089 54.4055 83.6254 54.248 82.3879 54.248Z" fill="#FFC107"/>
<path d="M82.3895 39.6197C81.594 39.6197 80.7793 39.6889 80.0491 39.8234C80.0491 39.8234 79.6398 40.0059 79.6187 40.5266C79.5976 41.0474 79.8397 41.3317 79.8397 41.3317C80.4911 41.1761 81.3423 41.0627 82.3914 41.0627C83.3714 41.0627 84.2975 41.1665 85.0488 41.3529C85.0488 41.3529 85.3255 41.0301 85.2852 40.567C85.2448 40.1039 84.8355 39.8445 84.8355 39.8445C84.0766 39.6927 83.2234 39.6197 82.3895 39.6197Z" fill="#BDBDBD"/>
<path d="M80.026 40.3153C79.9453 40.4383 79.928 40.6131 80.026 40.7226C80.1259 40.8341 80.295 40.8341 80.4449 40.8264C80.9137 40.8033 81.396 40.7745 81.8168 40.5651C81.9091 40.519 82.0128 40.4421 82.0051 40.3383C82.0013 40.273 81.9513 40.2192 81.9014 40.1769C81.6958 40.0021 81.4248 39.9233 81.1558 39.9041C80.737 39.8772 80.2777 39.9329 80.026 40.3153Z" fill="#EEEEEE"/>
</g>
<defs>
<clipPath id="clip0_94_602">
<rect width="49.3914" height="49.3913" fill="white" transform="translate(24.3564 31.1532)"/>
</clipPath>
<clipPath id="clip1_94_602">
<rect width="38.2609" height="38.2608" fill="white" transform="translate(48.2676 11.8262) rotate(13.8475)"/>
</clipPath>
<clipPath id="clip2_94_602">
<rect width="34.7826" height="34.7826" fill="white" transform="matrix(0.707107 -0.707106 0.707107 0.707106 57.7446 59.2265)"/>
</clipPath>
</defs>
</svg>
