<svg width="48" height="48" viewBox="0 0 48 48" fill="none" xmlns="http://www.w3.org/2000/svg">
<path d="M12.886 8.762C15.68 8.5 19.274 8.5 23.92 8.5H24.084C28.728 8.5 32.322 8.5 35.116 8.762C37.93 9.028 40.15 9.574 41.9339 10.822C43.7899 12.122 44.688 13.844 45.108 16.036C45.502 18.084 45.502 20.678 45.502 23.85V24.15C45.502 27.322 45.502 29.916 45.108 31.964C44.688 34.156 43.7899 35.878 41.9339 37.178C40.15 38.426 37.93 38.972 35.114 39.238C32.322 39.5 28.728 39.5 24.084 39.5H23.92C19.276 39.5 15.682 39.5 12.888 39.238C10.074 38.972 7.85395 38.426 6.06995 37.178C4.21395 35.878 3.31595 34.156 2.89595 31.964C2.50195 29.916 2.50195 27.322 2.50195 24.15V23.85C2.50195 20.678 2.50195 18.084 2.89595 16.036C3.31595 13.844 4.21395 12.122 6.06995 10.822C7.85395 9.574 10.074 9.028 12.89 8.762M23.12 17.89C22.6093 17.5506 21.9854 17.4259 21.3835 17.5431C20.7816 17.6602 20.25 18.0098 19.904 18.516C19.644 18.898 19.504 19.352 19.504 19.816V28.184C19.5038 28.6033 19.6172 29.0148 19.8322 29.3748C20.0473 29.7348 20.3558 30.0297 20.7251 30.2283C21.0944 30.4269 21.5106 30.5217 21.9295 30.5027C22.3484 30.4836 22.7542 30.3513 23.104 30.12L29.454 25.972C29.775 25.7631 30.0391 25.4776 30.2224 25.1413C30.4058 24.805 30.5026 24.4284 30.5042 24.0453C30.5057 23.6623 30.4121 23.2848 30.2315 22.947C30.051 22.6092 29.7893 22.3215 29.47 22.11L23.12 17.89Z" fill="#CEDBFB"/>
</svg>
